<svg width="45" height="75" viewBox="0 0 45 75" fill="none" xmlns="http://www.w3.org/2000/svg">
<path fill-rule="evenodd" clip-rule="evenodd" d="M20.7787 8.94524C21.8281 8.94524 22.6818 8.11689 22.6818 7.09762C22.6818 6.07835 21.8281 5.25 20.7787 5.25C20.5303 5.25 20.3287 5.44529 20.3287 5.68689C20.3287 5.9285 20.5303 6.12379 20.7787 6.12379C21.3318 6.12379 21.7818 6.56068 21.7818 7.09762C21.7818 7.63456 21.3318 8.07146 20.7787 8.07146C19.7293 8.07146 18.8761 8.89981 18.8761 9.91864C18.8761 10.9375 19.7293 11.7663 20.7787 11.7663C21.0271 11.7663 21.2287 11.571 21.2287 11.3294C21.2287 11.0878 21.0271 10.8925 20.7787 10.8925C20.2257 10.8925 19.7761 10.4556 19.7761 9.91864C19.7761 9.3817 20.2261 8.94524 20.7787 8.94524ZM40.5 39.765C40.5 40.0066 40.2984 40.2019 40.05 40.2019H4.95C4.7016 40.2019 4.5 40.0066 4.5 39.765V36.5809C4.5 36.3393 4.7016 36.144 4.95 36.144H5.2911V35.2659C5.2911 26.362 12.5033 19.0637 21.5536 18.5849C20.5114 18.21 19.7654 17.2379 19.7654 16.0972C19.7654 14.6336 20.9921 13.4422 22.5 13.4422C24.0079 13.4422 25.2347 14.6332 25.2347 16.0972C25.2347 17.2375 24.4886 18.21 23.4464 18.5849C32.4968 19.0637 39.7089 26.362 39.7089 35.2659V36.144H40.05C40.2984 36.144 40.5 36.3393 40.5 36.5809V39.765ZM5.4 37.0178V39.3281H39.6V37.0178H5.4ZM22.5 14.316C21.4884 14.316 20.6653 15.1151 20.6653 16.0972C20.6653 17.0793 21.4884 17.8784 22.5 17.8784C23.5116 17.8784 24.3347 17.0793 24.3347 16.0972C24.3347 15.1151 23.5116 14.316 22.5 14.316ZM22.5 19.4324C13.5072 19.4324 6.1911 26.5354 6.1911 35.2659V36.144H38.8089V35.2659C38.8089 26.5354 31.4928 19.4324 22.5 19.4324ZM8.56215 32.2544C9.5175 27.1558 13.4649 22.9796 18.6187 21.6156C18.859 21.55 19.1061 21.689 19.1713 21.9223C19.2366 22.1551 19.0953 22.395 18.8554 22.4588C14.0341 23.735 10.3414 27.6412 9.44775 32.4108C9.40815 32.6218 9.2187 32.7695 9.00539 32.7695C8.97884 32.7695 8.95185 32.7673 8.9244 32.762C8.68005 32.7188 8.5176 32.4916 8.56215 32.2544ZM26.9132 7.09762C26.9132 8.11689 26.0595 8.94524 25.0101 8.94524C24.4571 8.94524 24.0075 9.3817 24.0075 9.91864C24.0075 10.4556 24.4571 10.8925 25.0101 10.8925C25.2585 10.8925 25.4601 11.0878 25.4601 11.3294C25.4601 11.571 25.2585 11.7663 25.0101 11.7663C23.9607 11.7663 23.1075 10.9375 23.1075 9.91864C23.1075 8.89981 23.9607 8.07146 25.0101 8.07146C25.5632 8.07146 26.0132 7.63456 26.0132 7.09762C26.0132 6.56068 25.5632 6.12379 25.0101 6.12379C24.7617 6.12379 24.5601 5.9285 24.5601 5.68689C24.5601 5.44529 24.7617 5.25 25.0101 5.25C26.0595 5.25 26.9132 6.07835 26.9132 7.09762Z" fill="#333333"/>
<path d="M11.6054 61.004H14.7134C16.0481 61.004 17.0561 61.1907 17.7374 61.564C18.4188 61.9373 18.7594 62.5953 18.7594 63.538C18.7594 64.1073 18.6241 64.588 18.3534 64.98C18.0921 65.372 17.7141 65.61 17.2194 65.694V65.764C17.5554 65.8293 17.8588 65.946 18.1294 66.114C18.4001 66.282 18.6148 66.5247 18.7734 66.842C18.9321 67.1593 19.0114 67.5793 19.0114 68.102C19.0114 69.0073 18.6848 69.7167 18.0314 70.23C17.3781 70.7433 16.4821 71 15.3434 71H11.6054V61.004ZM13.7194 64.966H14.9514C15.5674 64.966 15.9921 64.868 16.2254 64.672C16.4681 64.476 16.5894 64.1913 16.5894 63.818C16.5894 63.4353 16.4494 63.16 16.1694 62.992C15.8894 62.824 15.4461 62.74 14.8394 62.74H13.7194V64.966ZM13.7194 66.646V69.25H15.1054C15.7401 69.25 16.1834 69.1287 16.4354 68.886C16.6874 68.634 16.8134 68.3027 16.8134 67.892C16.8134 67.5187 16.6828 67.22 16.4214 66.996C16.1694 66.7627 15.7074 66.646 15.0354 66.646H13.7194ZM23.6717 71.14C22.533 71.14 21.651 70.8273 21.0257 70.202C20.4097 69.5673 20.1017 68.5733 20.1017 67.22C20.1017 66.2867 20.2603 65.526 20.5777 64.938C20.895 64.35 21.3337 63.916 21.8937 63.636C22.463 63.356 23.1163 63.216 23.8537 63.216C24.3763 63.216 24.829 63.2673 25.2117 63.37C25.6037 63.4727 25.9443 63.594 26.2337 63.734L25.6177 65.344C25.291 65.2133 24.983 65.106 24.6937 65.022C24.4137 64.938 24.1337 64.896 23.8537 64.896C22.771 64.896 22.2297 65.666 22.2297 67.206C22.2297 67.9713 22.3697 68.536 22.6497 68.9C22.939 69.264 23.3403 69.446 23.8537 69.446C24.2923 69.446 24.6797 69.39 25.0157 69.278C25.3517 69.1567 25.6783 68.9933 25.9957 68.788V70.566C25.6783 70.7713 25.3423 70.916 24.9877 71C24.6423 71.0933 24.2037 71.14 23.6717 71.14ZM30.6251 63.216C31.6798 63.216 32.5151 63.5193 33.1311 64.126C33.7471 64.7233 34.0551 65.5773 34.0551 66.688V67.696H29.1271C29.1458 68.284 29.3184 68.746 29.6451 69.082C29.9811 69.418 30.4431 69.586 31.0311 69.586C31.5258 69.586 31.9738 69.5393 32.3751 69.446C32.7764 69.3433 33.1918 69.1893 33.6211 68.984V70.594C33.2478 70.7807 32.8511 70.916 32.4311 71C32.0204 71.0933 31.5211 71.14 30.9331 71.14C30.1678 71.14 29.4911 71 28.9031 70.72C28.3151 70.4307 27.8531 69.9967 27.5171 69.418C27.1811 68.8393 27.0131 68.1113 27.0131 67.234C27.0131 66.338 27.1624 65.596 27.4611 65.008C27.7691 64.4107 28.1938 63.9627 28.7351 63.664C29.2764 63.3653 29.9064 63.216 30.6251 63.216ZM30.6391 64.7C30.2378 64.7 29.9018 64.8307 29.6311 65.092C29.3698 65.3533 29.2158 65.7593 29.1691 66.31H32.0951C32.0858 65.8433 31.9644 65.4607 31.7311 65.162C31.4978 64.854 31.1338 64.7 30.6391 64.7Z" fill="#333333"/>
</svg>
