<svg width="45" height="75" viewBox="0 0 45 75" fill="none" xmlns="http://www.w3.org/2000/svg">
<path fill-rule="evenodd" clip-rule="evenodd" d="M6.2013 29.242C6.19005 29.1673 5.98485 27.6438 7.30875 26.4406C6.12705 26.1444 5.25 25.1037 5.25 23.8656V23.1709C5.25 21.7497 6.40335 20.5884 7.84875 20.5146V17.9378C7.27905 17.8199 6.76245 17.5206 6.3831 17.0758C5.8845 16.4917 5.682 15.7293 5.82735 14.9835C6.92715 9.34369 12.0157 5.25 17.9283 5.25H27.2456C32.9812 5.25 37.9097 9.03481 39.2304 14.454L39.3326 14.8713C39.5175 15.631 39.3371 16.4183 38.838 17.0308C38.4767 17.4747 37.9835 17.7788 37.4336 17.9142V20.5137C38.8817 20.5845 40.0386 21.7471 40.0386 23.1705V23.8651C40.0386 25.123 39.1346 26.1772 37.9254 26.4546C39.0909 27.719 39.0927 29.1166 39.0918 29.1839C39.0891 29.4233 38.8884 29.616 38.6418 29.616C38.1365 29.616 37.785 29.685 37.4853 29.7877V32.7406C37.8768 32.8822 38.23 33.1172 38.5073 33.4348C38.9766 33.9727 39.1777 34.68 39.0581 35.3751L38.7831 36.9776C38.4627 38.8449 36.8144 40.2006 34.8641 40.2006H10.4246C8.4747 40.2006 6.82635 38.8449 6.50505 36.9772L6.2301 35.3747C6.11085 34.6796 6.31155 33.9722 6.7809 33.4344C7.08105 33.0901 7.46985 32.8415 7.90095 32.7057V29.8213C7.58055 29.699 7.20705 29.6155 6.64635 29.6155C6.42315 29.6155 6.2337 29.4565 6.2013 29.242ZM33.2679 32.6126H36.5007C36.5282 32.6048 36.5561 32.5986 36.5835 32.5965V30.1966C36.1245 30.4142 35.5661 30.6186 34.6386 30.6186C33.5299 30.6186 32.9472 30.3269 32.4327 30.0693L32.4314 30.0686C31.9467 29.8252 31.5278 29.6155 30.6368 29.6155C29.7467 29.6155 29.3282 29.8252 28.844 30.0682C28.3301 30.3259 27.7473 30.6182 26.6381 30.6182C25.5293 30.6182 24.9465 30.3262 24.4324 30.0685L24.4317 30.0682C23.9475 29.8252 23.5286 29.6155 22.638 29.6155C21.7479 29.6155 21.3294 29.8252 20.8452 30.0682C20.3313 30.3259 19.7481 30.6182 18.6393 30.6182C17.5314 30.6182 16.9492 30.3264 16.4351 30.0688L16.4339 30.0682L16.4332 30.0678C15.9493 29.825 15.5317 29.6155 14.6419 29.6155C13.7518 29.6155 13.3338 29.8252 12.8496 30.0682C12.3357 30.3259 11.753 30.6182 10.6442 30.6182C9.78375 30.6182 9.2415 30.4421 8.80095 30.2429V32.6126H20.7422C22.4679 32.6126 24.0901 33.2653 25.311 34.4502L27.0048 36.0947L28.6986 34.4502C29.9195 33.2653 31.5422 32.6126 33.2679 32.6126ZM37.8957 36.8334L38.1707 35.2309C38.2463 34.7897 38.1189 34.3405 37.8214 33.9993C37.5744 33.7166 37.2324 33.5415 36.8607 33.4868H33.2679C31.7825 33.4868 30.3856 34.0487 29.3349 35.0684L27.323 37.0217C27.2352 37.1069 27.12 37.1498 27.0048 37.1498C26.8896 37.1498 26.7744 37.1069 26.6867 37.0217L24.6747 35.0684C23.624 34.0487 22.2276 33.4868 20.7422 33.4868H8.42835C8.0571 33.5415 7.71465 33.7166 7.46805 33.9993C7.17015 34.341 7.0428 34.7901 7.1184 35.2314L7.39335 36.8339C7.6413 38.2782 8.91615 39.3268 10.4246 39.3268H34.8641C36.3729 39.3268 37.6478 38.2787 37.8957 36.8334ZM34.6408 29.7449C35.5319 29.7449 35.9504 29.5351 36.435 29.2922C36.8661 29.076 37.3462 28.8352 38.1473 28.7636C38.0465 28.245 37.7328 27.3315 36.7581 26.58C36.7465 26.5712 36.7382 26.5601 36.7298 26.549C36.7245 26.5419 36.7192 26.5349 36.7131 26.5284H8.6817C8.65065 26.5621 8.61735 26.5949 8.5746 26.6184C7.37355 27.2755 7.1292 28.2402 7.0905 28.7588C7.92045 28.8242 8.41163 29.0704 8.85213 29.2913L8.85405 29.2922C9.33825 29.5351 9.7563 29.7449 10.6464 29.7449C11.5365 29.7449 11.9545 29.5351 12.4388 29.2922C12.9527 29.0345 13.5359 28.7422 14.6442 28.7422C15.7516 28.7422 16.3339 29.034 16.8479 29.2916L16.8492 29.2922C17.3334 29.5351 17.7515 29.7449 18.6416 29.7449C19.5317 29.7449 19.9502 29.5351 20.4344 29.2922C20.9483 29.0345 21.531 28.7422 22.6403 28.7422C23.7495 28.7422 24.3322 29.0342 24.8464 29.2919L24.847 29.2922C25.3313 29.5351 25.7498 29.7449 26.6403 29.7449C27.5304 29.7449 27.9489 29.5351 28.4331 29.2922C28.947 29.0345 29.5298 28.7422 30.639 28.7422C31.7482 28.7422 32.3309 29.0339 32.8453 29.2915L32.8467 29.2922C33.3314 29.5351 33.7498 29.7449 34.6408 29.7449ZM8.74875 17.9942V20.4897H12.2156C13.8459 20.4897 15.3782 21.1057 16.5311 22.225L18.3301 23.9717L20.1288 22.225C21.2822 21.1062 22.8144 20.4897 24.4443 20.4897H36.5336V17.9942H8.74875ZM17.9283 6.12335C12.4482 6.12335 7.73085 9.91777 6.7116 15.1456C6.6162 15.6345 6.7494 16.1343 7.07655 16.5175C7.4037 16.9006 7.88475 17.1204 8.3973 17.1204H36.7878C37.3152 17.1204 37.8053 16.8901 38.1329 16.4882C38.4605 16.0867 38.5788 15.5703 38.4569 15.0718L38.3552 14.655C37.1312 9.6316 32.5627 6.12335 27.246 6.12335H17.9283ZM7.99365 21.3805C6.9771 21.3805 6.15 22.1831 6.15 23.17H6.14955V23.8647C6.14955 24.8516 6.97665 25.6542 7.9932 25.6542H37.2954C38.312 25.6542 39.1391 24.8512 39.1391 23.8647V23.17C39.1391 22.1831 38.312 21.3805 37.2954 21.3805C37.2284 21.3805 37.1663 21.3644 37.1091 21.339C37.1047 21.3403 37.1003 21.3415 37.0958 21.3428C37.0597 21.3531 37.0232 21.3635 36.9836 21.3635H24.4447C23.0552 21.3635 21.7488 21.8886 20.7656 22.8428L18.6488 24.8984C18.5646 24.9805 18.4503 25.0264 18.3306 25.0264C18.2109 25.0264 18.0971 24.9805 18.0125 24.8984L15.8952 22.8428C14.9124 21.8891 13.6061 21.3635 12.216 21.3635H8.4531C8.44344 21.3654 8.43403 21.3679 8.42463 21.3705C8.40603 21.3755 8.38748 21.3805 8.36715 21.3805H7.99365ZM27.9201 9.07238C28.0087 9.17199 28.1343 9.22311 28.2598 9.22311C28.3642 9.22311 28.4695 9.18772 28.5546 9.11607C28.7422 8.95791 28.7625 8.6818 28.5996 8.49961L28.1473 7.99369C27.9849 7.8115 27.7005 7.79228 27.5129 7.95C27.3252 8.10815 27.305 8.38427 27.4678 8.56646L27.9201 9.07238ZM19.389 9.32534C19.4776 9.42495 19.6032 9.47606 19.7288 9.47606C19.8332 9.47606 19.9384 9.44068 20.0235 9.36903C20.2111 9.21087 20.2314 8.93475 20.0685 8.75257L19.6162 8.24665C19.4538 8.06403 19.1694 8.0448 18.9818 8.20296C18.7941 8.36111 18.7739 8.63723 18.9368 8.81942L19.389 9.32534ZM21.4369 12.1494C21.3838 12.1695 21.3294 12.1787 21.2758 12.1787C21.0949 12.1787 20.9244 12.0721 20.8555 11.8982C20.7664 11.6728 20.8821 11.4202 21.1143 11.3337L21.7582 11.0939C21.9909 11.0074 22.251 11.1201 22.3396 11.3451C22.4287 11.5705 22.3131 11.8231 22.0809 11.9096L21.4369 12.1494ZM13.3486 9.71592C13.4022 9.71592 13.4566 9.70675 13.5097 9.68665L14.1537 9.44679C14.3859 9.36029 14.5015 9.10777 14.4124 8.88233C14.3238 8.65733 14.0641 8.54417 13.831 8.63111L13.1871 8.87097C12.9549 8.95747 12.8392 9.21 12.9283 9.43544C12.9972 9.60888 13.1673 9.71592 13.3486 9.71592ZM23.8188 9.56694C23.7657 9.58704 23.7112 9.59621 23.6577 9.59621C23.4768 9.59621 23.3062 9.48917 23.2374 9.31529C23.1483 9.08985 23.2639 8.83733 23.4961 8.75082L24.1405 8.51097C24.3732 8.4249 24.6333 8.53718 24.7219 8.76262C24.811 8.98806 24.6954 9.24058 24.4632 9.32709L23.8188 9.56694ZM31.4238 10.4267C31.4774 10.4267 31.5318 10.4176 31.5849 10.3975L32.2289 10.1576C32.4611 10.0711 32.5767 9.81859 32.4876 9.59316C32.399 9.36816 32.1393 9.255 31.9062 9.34194L31.2623 9.5818C31.0301 9.6683 30.9144 9.92083 31.0035 10.1463C31.0724 10.3197 31.2425 10.4267 31.4238 10.4267ZM16.6273 11.4731L15.9451 11.3757C15.6994 11.3407 15.5293 11.1188 15.5649 10.8802C15.6009 10.6417 15.8232 10.4744 16.0756 10.5115L16.7578 10.6089C17.0035 10.6439 17.1736 10.8663 17.1376 11.1048C17.1048 11.3219 16.9126 11.4779 16.693 11.4779C16.6719 11.4779 16.6498 11.4762 16.6273 11.4731ZM26.4423 11.3272L27.1249 11.4246C27.1474 11.4277 27.1695 11.4294 27.1906 11.4294C27.4102 11.4294 27.6024 11.2734 27.6352 11.0559C27.6712 10.8173 27.5011 10.5954 27.2554 10.5604L26.5728 10.463C26.3208 10.4267 26.098 10.5928 26.062 10.8317C26.0269 11.0703 26.197 11.2922 26.4423 11.3272Z" fill="#333333"/>
<path d="M2.48672 70V60.004H8.14272V60.732H3.29872V64.358H5.09072C6.34139 64.358 7.24205 64.5867 7.79272 65.044C8.34339 65.5013 8.61872 66.192 8.61872 67.116C8.61872 68.0493 8.34339 68.7633 7.79272 69.258C7.25139 69.7527 6.40672 70 5.25872 70H2.48672ZM3.29872 69.286H5.14672C6.07072 69.286 6.73805 69.1133 7.14872 68.768C7.56872 68.4133 7.77872 67.8627 7.77872 67.116C7.77872 66.332 7.54539 65.8 7.07872 65.52C6.61205 65.2307 5.91205 65.086 4.97872 65.086H3.29872V69.286ZM9.18758 62.552H10.0416L11.8196 67.186C11.9689 67.5967 12.0996 67.9653 12.2116 68.292C12.3236 68.6093 12.4122 68.894 12.4776 69.146H12.5196C12.6596 68.6793 12.8789 68.0307 13.1776 67.2L14.9136 62.552H15.7676L12.4076 71.33C12.1556 71.9833 11.8569 72.4873 11.5116 72.842C11.1662 73.1967 10.6996 73.374 10.1116 73.374C9.93425 73.374 9.77091 73.3647 9.62158 73.346C9.48158 73.3273 9.34625 73.2947 9.21558 73.248V72.576C9.33691 72.6133 9.45825 72.6413 9.57958 72.66C9.71025 72.688 9.85491 72.702 10.0136 72.702C10.4056 72.702 10.7229 72.5807 10.9656 72.338C11.2176 72.0953 11.4416 71.722 11.6376 71.218L12.1136 69.972L9.18758 62.552ZM20.0481 62.412C21.0001 62.412 21.7421 62.734 22.2741 63.378C22.8061 64.022 23.0721 64.974 23.0721 66.234C23.0721 67.494 22.7921 68.46 22.2321 69.132C21.6814 69.804 20.9254 70.14 19.9641 70.14C19.3107 70.14 18.7834 70 18.3821 69.72C17.9807 69.44 17.6867 69.104 17.5001 68.712H17.4441C17.4627 68.9453 17.4767 69.202 17.4861 69.482C17.4954 69.7527 17.5001 70.0093 17.5001 70.252V73.304H16.7021V62.552H17.3601L17.4581 63.938H17.5001C17.6867 63.5367 17.9854 63.182 18.3961 62.874C18.8067 62.566 19.3574 62.412 20.0481 62.412ZM19.9361 63.098C19.1054 63.098 18.4941 63.3593 18.1021 63.882C17.7101 64.4047 17.5094 65.156 17.5001 66.136V66.276C17.5001 67.34 17.6914 68.138 18.0741 68.67C18.4661 69.1927 19.0681 69.454 19.8801 69.454C20.6454 69.454 21.2287 69.1693 21.6301 68.6C22.0407 68.0213 22.2461 67.228 22.2461 66.22C22.2461 65.2213 22.0501 64.4513 21.6581 63.91C21.2754 63.3687 20.7014 63.098 19.9361 63.098ZM29.2129 62.552V63.238H25.6009V70H24.8029V62.552H29.2129ZM33.1478 62.412C33.7825 62.412 34.3098 62.5613 34.7298 62.86C35.1591 63.1493 35.4811 63.5507 35.6958 64.064C35.9198 64.5773 36.0318 65.1653 36.0318 65.828V66.374H30.7118C30.7118 67.3633 30.9405 68.124 31.3978 68.656C31.8645 69.1787 32.5271 69.44 33.3858 69.44C33.8431 69.44 34.2445 69.4027 34.5898 69.328C34.9351 69.2533 35.3131 69.1227 35.7238 68.936V69.664C35.3505 69.832 34.9818 69.9533 34.6178 70.028C34.2538 70.1027 33.8338 70.14 33.3578 70.14C32.2378 70.14 31.3791 69.7993 30.7818 69.118C30.1845 68.4367 29.8858 67.508 29.8858 66.332C29.8858 65.576 30.0118 64.904 30.2638 64.316C30.5251 63.728 30.8985 63.266 31.3838 62.93C31.8691 62.5847 32.4571 62.412 33.1478 62.412ZM33.1338 63.084C32.4525 63.084 31.8971 63.3127 31.4678 63.77C31.0478 64.2273 30.8005 64.876 30.7258 65.716H35.2058C35.2058 64.932 35.0331 64.2973 34.6878 63.812C34.3518 63.3267 33.8338 63.084 33.1338 63.084ZM41.1104 62.412C42.0624 62.412 42.8044 62.734 43.3364 63.378C43.8684 64.022 44.1344 64.974 44.1344 66.234C44.1344 67.494 43.8544 68.46 43.2944 69.132C42.7438 69.804 41.9878 70.14 41.0264 70.14C40.3731 70.14 39.8458 70 39.4444 69.72C39.0431 69.44 38.7491 69.104 38.5624 68.712H38.5064C38.5251 68.9453 38.5391 69.202 38.5484 69.482C38.5578 69.7527 38.5624 70.0093 38.5624 70.252V73.304H37.7644V62.552H38.4224L38.5204 63.938H38.5624C38.7491 63.5367 39.0478 63.182 39.4584 62.874C39.8691 62.566 40.4198 62.412 41.1104 62.412ZM40.9984 63.098C40.1678 63.098 39.5564 63.3593 39.1644 63.882C38.7724 64.4047 38.5718 65.156 38.5624 66.136V66.276C38.5624 67.34 38.7538 68.138 39.1364 68.67C39.5284 69.1927 40.1304 69.454 40.9424 69.454C41.7078 69.454 42.2911 69.1693 42.6924 68.6C43.1031 68.0213 43.3084 67.228 43.3084 66.22C43.3084 65.2213 43.1124 64.4513 42.7204 63.91C42.3378 63.3687 41.7638 63.098 40.9984 63.098Z" fill="#333333"/>
</svg>
