<svg width="45" height="45" viewBox="0 0 45 45" fill="none" xmlns="http://www.w3.org/2000/svg">
<rect width="45" height="45" rx="22.5" fill="#F2F2F2"/>
<path d="M29.75 29C30.0625 29 30.3555 29.0586 30.6289 29.1758C30.9023 29.293 31.1406 29.4531 31.3438 29.6562C31.5469 29.8594 31.707 30.0977 31.8242 30.3711C31.9414 30.6445 32 30.9375 32 31.25C32 31.5625 31.9414 31.8555 31.8242 32.1289C31.707 32.4023 31.5469 32.6406 31.3438 32.8438C31.1406 33.0469 30.9023 33.207 30.6289 33.3242C30.3555 33.4414 30.0625 33.5 29.75 33.5C29.4375 33.5 29.1445 33.4414 28.8711 33.3242C28.5977 33.207 28.3594 33.0469 28.1562 32.8438C27.9531 32.6406 27.793 32.4023 27.6758 32.1289C27.5586 31.8555 27.5 31.5625 27.5 31.25C27.5 31.0078 27.543 30.7578 27.6289 30.5H21.3711C21.457 30.7578 21.5 31.0078 21.5 31.25C21.5 31.5625 21.4414 31.8555 21.3242 32.1289C21.207 32.4023 21.0469 32.6406 20.8438 32.8438C20.6406 33.0469 20.4023 33.207 20.1289 33.3242C19.8555 33.4414 19.5625 33.5 19.25 33.5C18.9375 33.5 18.6445 33.4414 18.3711 33.3242C18.0977 33.207 17.8594 33.0469 17.6562 32.8438C17.4531 32.6406 17.293 32.4023 17.1758 32.1289C17.0586 31.8555 17 31.5625 17 31.25C17 30.8203 17.1133 30.4219 17.3398 30.0547C17.5742 29.6875 17.8867 29.4102 18.2773 29.2227L13.2148 14H11V12.5H14.293L15.2891 15.5H35L31.5078 26H18.793L19.7891 29H29.75ZM15.793 17L18.2891 24.5H30.418L32.9141 17H15.793ZM20 31.25C20 31.0469 19.9258 30.8711 19.7773 30.7227C19.6289 30.5742 19.4531 30.5 19.25 30.5C19.0469 30.5 18.8711 30.5742 18.7227 30.7227C18.5742 30.8711 18.5 31.0469 18.5 31.25C18.5 31.4531 18.5742 31.6289 18.7227 31.7773C18.8711 31.9258 19.0469 32 19.25 32C19.4531 32 19.6289 31.9258 19.7773 31.7773C19.9258 31.6289 20 31.4531 20 31.25ZM29.75 32C29.9531 32 30.1289 31.9258 30.2773 31.7773C30.4258 31.6289 30.5 31.4531 30.5 31.25C30.5 31.0469 30.4258 30.8711 30.2773 30.7227C30.1289 30.5742 29.9531 30.5 29.75 30.5C29.5469 30.5 29.3711 30.5742 29.2227 30.7227C29.0742 30.8711 29 31.0469 29 31.25C29 31.4531 29.0742 31.6289 29.2227 31.7773C29.3711 31.9258 29.5469 32 29.75 32Z" fill="#333333"/>
</svg>
