<svg width="30" height="30" viewBox="0 0 30 30" fill="none" xmlns="http://www.w3.org/2000/svg">
<path d="M21.75 21C22.0625 21 22.3555 21.0586 22.6289 21.1758C22.9023 21.293 23.1406 21.4531 23.3438 21.6562C23.5469 21.8594 23.707 22.0977 23.8242 22.3711C23.9414 22.6445 24 22.9375 24 23.25C24 23.5625 23.9414 23.8555 23.8242 24.1289C23.707 24.4023 23.5469 24.6406 23.3438 24.8438C23.1406 25.0469 22.9023 25.207 22.6289 25.3242C22.3555 25.4414 22.0625 25.5 21.75 25.5C21.4375 25.5 21.1445 25.4414 20.8711 25.3242C20.5977 25.207 20.3594 25.0469 20.1562 24.8438C19.9531 24.6406 19.793 24.4023 19.6758 24.1289C19.5586 23.8555 19.5 23.5625 19.5 23.25C19.5 23.0078 19.543 22.7578 19.6289 22.5H13.3711C13.457 22.7578 13.5 23.0078 13.5 23.25C13.5 23.5625 13.4414 23.8555 13.3242 24.1289C13.207 24.4023 13.0469 24.6406 12.8438 24.8438C12.6406 25.0469 12.4023 25.207 12.1289 25.3242C11.8555 25.4414 11.5625 25.5 11.25 25.5C10.9375 25.5 10.6445 25.4414 10.3711 25.3242C10.0977 25.207 9.85938 25.0469 9.65625 24.8438C9.45312 24.6406 9.29297 24.4023 9.17578 24.1289C9.05859 23.8555 9 23.5625 9 23.25C9 22.8203 9.11328 22.4219 9.33984 22.0547C9.57422 21.6875 9.88672 21.4102 10.2773 21.2227L5.21484 6H3V4.5H6.29297L7.28906 7.5H27L23.5078 18H10.793L11.7891 21H21.75ZM7.79297 9L10.2891 16.5H22.418L24.9141 9H7.79297ZM12 23.25C12 23.0469 11.9258 22.8711 11.7773 22.7227C11.6289 22.5742 11.4531 22.5 11.25 22.5C11.0469 22.5 10.8711 22.5742 10.7227 22.7227C10.5742 22.8711 10.5 23.0469 10.5 23.25C10.5 23.4531 10.5742 23.6289 10.7227 23.7773C10.8711 23.9258 11.0469 24 11.25 24C11.4531 24 11.6289 23.9258 11.7773 23.7773C11.9258 23.6289 12 23.4531 12 23.25ZM21.75 24C21.9531 24 22.1289 23.9258 22.2773 23.7773C22.4258 23.6289 22.5 23.4531 22.5 23.25C22.5 23.0469 22.4258 22.8711 22.2773 22.7227C22.1289 22.5742 21.9531 22.5 21.75 22.5C21.5469 22.5 21.3711 22.5742 21.2227 22.7227C21.0742 22.8711 21 23.0469 21 23.25C21 23.4531 21.0742 23.6289 21.2227 23.7773C21.3711 23.9258 21.5469 24 21.75 24Z" fill="#333333"/>
</svg>
