<svg width="14" height="14" viewBox="0 0 14 14" fill="none" xmlns="http://www.w3.org/2000/svg">
<path d="M9.67969 8.57227L11.375 14L7 10.6367L2.625 14L4.32031 8.57227L0 5.25H5.35938L7 0L8.64062 5.25H14L9.67969 8.57227ZM9.71387 11.6211C9.54069 11.056 9.36751 10.4954 9.19434 9.93945C9.02116 9.37891 8.84342 8.81608 8.66113 8.25098C9.13053 7.90007 9.5931 7.54688 10.0488 7.19141C10.5046 6.83594 10.9648 6.48047 11.4297 6.125H7.99805L7 2.93262L6.00195 6.125H2.57031C3.03516 6.48047 3.49544 6.83594 3.95117 7.19141C4.4069 7.54688 4.86947 7.90007 5.33887 8.25098C5.15658 8.81608 4.97884 9.37891 4.80566 9.93945C4.63249 10.4954 4.45931 11.056 4.28613 11.6211L7 9.5293L9.71387 11.6211Z" fill="#333333"/>
</svg>
