<svg width="24" height="22" viewBox="0 0 24 22" fill="none" xmlns="http://www.w3.org/2000/svg">
<path d="M17.625 0.5C18.5078 0.5 19.3359 0.667969 20.1094 1.00391C20.8828 1.33984 21.5586 1.79688 22.1367 2.375C22.7148 2.94531 23.168 3.62109 23.4961 4.40234C23.832 5.17578 24 6 24 6.875C24 7.72656 23.8359 8.54297 23.5078 9.32422C23.1875 10.1055 22.7305 10.793 22.1367 11.3867L12 21.5117L1.86328 11.3867C1.26953 10.793 0.808594 10.1055 0.480469 9.32422C0.160156 8.54297 0 7.72656 0 6.875C0 6 0.164062 5.17578 0.492188 4.40234C0.828125 3.62109 1.28516 2.94531 1.86328 2.375C2.44141 1.79688 3.11719 1.33984 3.89062 1.00391C4.66406 0.667969 5.49219 0.5 6.375 0.5C7.02344 0.5 7.60156 0.574219 8.10938 0.722656C8.61719 0.871094 9.08594 1.07812 9.51562 1.34375C9.95312 1.60156 10.3672 1.91406 10.7578 2.28125C11.1562 2.64844 11.5703 3.05078 12 3.48828C12.4297 3.05078 12.8398 2.64844 13.2305 2.28125C13.6289 1.91406 14.043 1.60156 14.4727 1.34375C14.9102 1.07812 15.3828 0.871094 15.8906 0.722656C16.3984 0.574219 16.9766 0.5 17.625 0.5ZM21.0703 10.3203C21.5312 9.85938 21.8828 9.33203 22.125 8.73828C22.3672 8.14453 22.4883 7.52344 22.4883 6.875C22.4883 6.19531 22.3633 5.5625 22.1133 4.97656C21.8633 4.38281 21.5156 3.87109 21.0703 3.44141C20.6328 3.00391 20.1172 2.66406 19.5234 2.42188C18.9375 2.17188 18.3047 2.04688 17.625 2.04688C16.9688 2.04688 16.3867 2.15234 15.8789 2.36328C15.3711 2.56641 14.9023 2.83594 14.4727 3.17188C14.043 3.50781 13.6289 3.89062 13.2305 4.32031C12.8398 4.74219 12.4297 5.17188 12 5.60938C11.5781 5.1875 11.168 4.76172 10.7695 4.33203C10.3711 3.90234 9.95312 3.51562 9.51562 3.17188C9.08594 2.82813 8.61328 2.54688 8.09766 2.32812C7.58984 2.10937 7.01562 2 6.375 2C5.70312 2 5.07031 2.12891 4.47656 2.38672C3.88281 2.63672 3.36328 2.98438 2.91797 3.42969C2.48047 3.86719 2.13281 4.38281 1.875 4.97656C1.625 5.57031 1.5 6.20313 1.5 6.875C1.5 7.52344 1.62109 8.14453 1.86328 8.73828C2.11328 9.33203 2.46875 9.85938 2.92969 10.3203L12 19.3906L21.0703 10.3203Z" fill="#333333"/>
</svg>
