<svg width="45" height="75" viewBox="0 0 45 75" fill="none" xmlns="http://www.w3.org/2000/svg">
<path fill-rule="evenodd" clip-rule="evenodd" d="M11.0175 37.9099C10.4775 38.4967 9.7125 38.7675 8.9475 38.7675C8.2275 38.7675 7.4625 38.4967 6.8775 37.9099C5.7075 36.7365 5.7075 34.8859 6.8775 33.7125C7.9125 32.6744 9.5325 32.5841 10.7025 33.4417L15.8325 28.2963L14.1225 26.5812C13.0875 25.498 13.0875 23.7829 14.1225 22.7448C14.6175 22.2483 15.2925 21.9775 16.0125 21.9775C16.7325 21.9775 17.4075 22.2483 17.9025 22.7448L19.6125 24.4599L20.1525 23.9183C20.1975 23.8732 20.2425 23.828 20.2875 23.828L17.1825 20.7138C16.5075 20.0368 16.5075 18.9084 17.1825 18.2314C17.8575 17.5544 18.9825 17.5544 19.6575 18.2314L22.7625 21.4811L23.3475 20.8943C23.4375 20.804 23.5725 20.7589 23.7075 20.7589L21.8625 18.9084C20.8275 17.8252 20.8275 16.1101 21.8625 15.072C22.3575 14.5755 23.0325 14.3047 23.7525 14.3047C24.4725 14.3047 25.1475 14.5755 25.6425 15.072L27.3525 16.7871C27.375 16.7645 27.3863 16.742 27.3975 16.7194C27.4088 16.6968 27.42 16.6743 27.4425 16.6517L28.0725 16.0198L24.9675 12.9055C24.2925 12.2285 24.2925 11.1002 24.9675 10.4232C25.6425 9.74615 26.7675 9.74615 27.4425 10.4232L30.5475 13.5374L31.2675 12.8153C31.3125 12.7701 31.4025 12.725 31.4475 12.725L29.6925 10.9648C29.1975 10.4683 28.9275 9.79128 28.9275 9.06913C28.9275 8.34698 29.1975 7.66997 29.6925 7.17349C30.7725 6.1354 32.4825 6.1354 33.5175 7.17349L35.2275 8.8886L37.9725 6.1354C38.1525 5.95487 38.4225 5.95487 38.6025 6.1354C38.7825 6.31594 38.7825 6.58675 38.6025 6.76728L35.8575 9.52047L37.5675 11.2356C38.6025 12.3188 38.6025 14.0339 37.5675 15.072C37.0725 15.5685 36.3975 15.8393 35.6775 15.8393C34.9575 15.8393 34.2825 15.5685 33.7875 15.072L32.0325 13.3118C32.0325 13.402 31.9875 13.4472 31.9425 13.4923L31.2225 14.2144L34.3275 17.3287C35.0025 18.0057 35.0025 19.1341 34.3275 19.8111C33.9675 20.127 33.5175 20.3076 33.0675 20.3076C32.6175 20.3076 32.1675 20.1722 31.8075 19.8111L28.7025 16.6968L28.0725 17.3287C28.0275 17.3738 27.9825 17.419 27.9375 17.419L29.6475 19.1341C30.1425 19.6306 30.4125 20.3076 30.4125 21.0297C30.4125 21.7519 30.1425 22.4289 29.6475 22.9254C29.1525 23.467 28.4325 23.7378 27.7575 23.7378C27.0825 23.7378 26.4075 23.467 25.8675 22.9254L24.0225 21.0749C24.0225 21.2103 23.9775 21.3457 23.8875 21.4359L23.3025 22.0227L26.4075 25.1369C27.0825 25.814 27.0825 26.9423 26.4075 27.6193C26.0475 27.9353 25.5975 28.1158 25.1475 28.1158C24.6975 28.1158 24.2475 27.9804 23.8875 27.6193L20.7825 24.5051C20.76 24.5276 20.7487 24.5502 20.7375 24.5728C20.7262 24.5953 20.715 24.6179 20.6925 24.6405L20.1525 25.1821L21.8625 26.8972C22.3575 27.3937 22.6275 28.0707 22.6275 28.7928C22.6275 29.515 22.3575 30.192 21.8625 30.6885C21.3675 31.2301 20.6475 31.5009 19.9725 31.5009C19.2975 31.5009 18.6225 31.2301 18.0825 30.6885L16.3725 28.9734L11.2875 34.0735C12.1425 35.247 12.0525 36.8719 11.0175 37.9099ZM30.4125 7.7151C30.0525 8.03104 29.8725 8.48239 29.8725 8.97886C29.8725 9.47534 30.0525 9.92668 30.4125 10.2426L34.4625 14.3047C34.7775 14.6658 35.2275 14.8463 35.7225 14.8463C36.1725 14.8463 36.6225 14.6658 36.9825 14.3047C37.7025 13.6277 37.7025 12.4993 36.9825 11.7772L32.9325 7.7151C32.5725 7.35403 32.1225 7.17349 31.6725 7.17349C31.2225 7.17349 30.7725 7.35403 30.4125 7.7151ZM26.3175 10.694C26.0925 10.694 25.8675 10.7842 25.6875 10.9648C25.3275 11.3258 25.3275 11.8675 25.6875 12.2285L32.5725 19.0438C32.8875 19.3597 33.4275 19.4049 33.7875 19.0438C34.1475 18.7279 34.1475 18.1863 33.7875 17.8252L26.9475 10.9648C26.7675 10.7842 26.5425 10.694 26.3175 10.694ZM23.7525 15.072C23.3025 15.072 22.8525 15.2525 22.4925 15.6136C21.8175 16.3358 21.8175 17.4641 22.4925 18.1411L26.5425 22.2032C27.2175 22.9254 28.3425 22.9254 29.0625 22.2032C29.4225 21.8873 29.6025 21.4359 29.6025 20.9395C29.6025 20.4881 29.4225 20.0368 29.0625 19.6757L25.0125 15.6136C24.6975 15.2525 24.2475 15.072 23.7525 15.072ZM18.4425 18.5925C18.2175 18.5925 17.9925 18.6827 17.8125 18.8633C17.4975 19.2243 17.4975 19.766 17.8125 20.0819L24.6975 26.9423C25.0125 27.2582 25.5525 27.2582 25.9125 26.9423C26.2725 26.6264 26.2725 26.0848 25.9125 25.7237L19.0725 18.8633C18.8925 18.6827 18.6675 18.5925 18.4425 18.5925ZM15.9675 22.8802C15.5175 22.8802 15.0675 23.0608 14.7075 23.4218C14.0325 24.0989 14.0325 25.2723 14.7075 25.9494L18.7575 30.0114C19.4325 30.7336 20.5575 30.7336 21.2775 30.0114C21.6375 29.6955 21.8175 29.2442 21.8175 28.7477C21.8175 28.2963 21.6375 27.845 21.2775 27.4839L17.2275 23.4218C16.9125 23.0608 16.4625 22.8802 15.9675 22.8802ZM8.9475 33.7576C8.4525 33.7576 7.9125 33.9381 7.5075 34.3443C6.6975 35.1568 6.6975 36.4656 7.4625 37.2781C8.2725 38.0905 9.5775 38.0905 10.3875 37.2781C11.1975 36.4656 11.1975 35.1568 10.3875 34.3443C9.9825 33.9381 9.4875 33.7576 8.9475 33.7576ZM18.9825 10.4232C18.5325 10.6488 18.2175 11.0099 18.0375 11.4613C17.8575 11.9126 17.9025 12.4091 18.1275 12.8604C18.4425 13.4923 19.1175 13.8985 19.7925 13.8985C20.0625 13.8985 20.3325 13.8534 20.6025 13.718C20.8275 13.6277 20.9175 13.3569 20.8275 13.1312C20.7375 12.9056 20.4675 12.8153 20.2425 12.9056C19.7925 13.1312 19.2075 12.9507 18.9825 12.4542C18.7575 12.0029 18.9375 11.4161 19.4325 11.1904C19.8825 10.9648 20.1975 10.6037 20.3775 10.1524C20.5575 9.70101 20.5125 9.20454 20.2875 8.75319C20.0625 8.30185 19.7025 7.98591 19.2525 7.80538C18.8025 7.62484 18.3075 7.66997 17.8575 7.89564C17.6325 7.98591 17.5425 8.25672 17.6325 8.48239C17.7225 8.70806 17.9925 8.79833 18.2175 8.70806C18.6675 8.48239 19.2525 8.66293 19.4775 9.1594C19.6125 9.61075 19.4325 10.1975 18.9825 10.4232ZM15.3375 12.1834C14.8875 12.4091 14.5725 12.7701 14.3925 13.2215C14.2125 13.6728 14.2575 14.1693 14.4825 14.6206C14.7075 15.072 15.0675 15.3879 15.5175 15.5685C15.6975 15.6136 15.9225 15.6587 16.1025 15.6587C16.3725 15.6587 16.6425 15.6136 16.9125 15.4782C17.1375 15.3879 17.2275 15.1171 17.1375 14.8915C17.0475 14.6658 16.7775 14.5755 16.5525 14.6658C16.3275 14.7561 16.0575 14.8012 15.8325 14.7109C15.6075 14.6206 15.3825 14.4401 15.2925 14.2144C15.2025 13.9888 15.1575 13.718 15.2475 13.4923C15.3375 13.2666 15.5175 13.0409 15.7425 12.9507C16.1925 12.725 16.5075 12.3639 16.6875 11.9126C16.8675 11.4612 16.8225 10.9648 16.5975 10.5134C16.1475 9.61074 15.0675 9.20453 14.1225 9.65588C13.8975 9.74615 13.8075 10.017 13.8975 10.2426C13.9875 10.4683 14.2575 10.5586 14.4825 10.4683C14.9325 10.2426 15.5175 10.4232 15.7425 10.9196C15.9675 11.4161 15.7875 11.9577 15.3375 12.1834Z" fill="#333333"/>
<path d="M12.362 71H11.34L6.48196 65.904V71H5.66996V61.004H6.48196V65.848L11.214 61.004H12.208L7.47596 65.862L12.362 71ZM16.1847 63.412C16.8194 63.412 17.3467 63.5613 17.7667 63.86C18.1961 64.1493 18.5181 64.5507 18.7327 65.064C18.9567 65.5773 19.0687 66.1653 19.0687 66.828V67.374H13.7487C13.7487 68.3633 13.9774 69.124 14.4347 69.656C14.9014 70.1787 15.5641 70.44 16.4227 70.44C16.8801 70.44 17.2814 70.4027 17.6267 70.328C17.9721 70.2533 18.3501 70.1227 18.7607 69.936V70.664C18.3874 70.832 18.0187 70.9533 17.6547 71.028C17.2907 71.1027 16.8707 71.14 16.3947 71.14C15.2747 71.14 14.4161 70.7993 13.8187 70.118C13.2214 69.4367 12.9227 68.508 12.9227 67.332C12.9227 66.576 13.0487 65.904 13.3007 65.316C13.5621 64.728 13.9354 64.266 14.4207 63.93C14.9061 63.5847 15.4941 63.412 16.1847 63.412ZM16.1707 64.084C15.4894 64.084 14.9341 64.3127 14.5047 64.77C14.0847 65.2273 13.8374 65.876 13.7627 66.716H18.2427C18.2427 65.932 18.0701 65.2973 17.7247 64.812C17.3887 64.3267 16.8707 64.084 16.1707 64.084ZM20.3953 66.52C20.3953 65.0827 20.5773 63.944 20.9413 63.104C21.3053 62.2547 21.8607 61.6667 22.6073 61.34C23.1113 61.0693 23.6947 60.8547 24.3573 60.696C25.0293 60.5373 25.7807 60.4067 26.6113 60.304L26.7373 61.018C25.8787 61.1207 25.118 61.2513 24.4553 61.41C23.7927 61.5593 23.2607 61.746 22.8593 61.97C22.3833 62.222 22.0053 62.642 21.7253 63.23C21.4453 63.818 21.282 64.602 21.2353 65.582H21.2913C21.534 65.162 21.8887 64.8073 22.3553 64.518C22.822 64.2193 23.3727 64.07 24.0073 64.07C24.95 64.07 25.664 64.3687 26.1493 64.966C26.644 65.554 26.8913 66.38 26.8913 67.444C26.8913 68.5827 26.616 69.4833 26.0653 70.146C25.5147 70.8087 24.712 71.14 23.6573 71.14C22.9107 71.14 22.2947 70.944 21.8093 70.552C21.324 70.1507 20.9647 69.6047 20.7313 68.914C20.5073 68.214 20.3953 67.416 20.3953 66.52ZM23.7273 70.454C24.502 70.454 25.0807 70.1973 25.4633 69.684C25.8553 69.1707 26.0513 68.4427 26.0513 67.5C26.0513 66.6133 25.8693 65.9367 25.5053 65.47C25.1507 64.994 24.6187 64.756 23.9093 64.756C23.2747 64.756 22.7287 64.9333 22.2713 65.288C21.814 65.6333 21.4593 66.0347 21.2073 66.492C21.2073 66.996 21.2447 67.486 21.3193 67.962C21.394 68.4287 21.5247 68.8487 21.7113 69.222C21.898 69.5953 22.1547 69.894 22.4813 70.118C22.808 70.342 23.2233 70.454 23.7273 70.454ZM31.2608 63.426C32.1008 63.426 32.7261 63.6313 33.1368 64.042C33.5474 64.4527 33.7528 65.1013 33.7528 65.988V71H33.1508L33.0108 69.74H32.9688C32.6981 70.16 32.3668 70.5007 31.9748 70.762C31.5921 71.014 31.0554 71.14 30.3648 71.14C29.6461 71.14 29.0814 70.9627 28.6708 70.608C28.2601 70.244 28.0548 69.726 28.0548 69.054C28.0548 68.3073 28.3581 67.7427 28.9648 67.36C29.5714 66.968 30.4534 66.7487 31.6108 66.702L32.9688 66.632V66.114C32.9688 65.386 32.8194 64.868 32.5208 64.56C32.2314 64.252 31.8021 64.098 31.2328 64.098C30.8501 64.098 30.4814 64.1493 30.1268 64.252C29.7721 64.3547 29.4174 64.49 29.0628 64.658L28.8108 64.014C29.1654 63.846 29.5481 63.706 29.9588 63.594C30.3788 63.482 30.8128 63.426 31.2608 63.426ZM32.9688 67.234L31.7088 67.29C30.7568 67.3367 30.0474 67.5047 29.5808 67.794C29.1141 68.074 28.8808 68.494 28.8808 69.054C28.8808 69.5207 29.0254 69.8753 29.3148 70.118C29.6041 70.3513 30.0008 70.468 30.5048 70.468C31.2794 70.468 31.8814 70.2487 32.3108 69.81C32.7401 69.362 32.9594 68.746 32.9688 67.962V67.234ZM35.4486 66.52C35.4486 65.0827 35.6306 63.944 35.9946 63.104C36.3586 62.2547 36.9139 61.6667 37.6606 61.34C38.1646 61.0693 38.7479 60.8547 39.4106 60.696C40.0826 60.5373 40.8339 60.4067 41.6646 60.304L41.7906 61.018C40.9319 61.1207 40.1713 61.2513 39.5086 61.41C38.8459 61.5593 38.3139 61.746 37.9126 61.97C37.4366 62.222 37.0586 62.642 36.7786 63.23C36.4986 63.818 36.3353 64.602 36.2886 65.582H36.3446C36.5873 65.162 36.9419 64.8073 37.4086 64.518C37.8753 64.2193 38.4259 64.07 39.0606 64.07C40.0033 64.07 40.7173 64.3687 41.2026 64.966C41.6973 65.554 41.9446 66.38 41.9446 67.444C41.9446 68.5827 41.6693 69.4833 41.1186 70.146C40.5679 70.8087 39.7653 71.14 38.7106 71.14C37.9639 71.14 37.3479 70.944 36.8626 70.552C36.3773 70.1507 36.0179 69.6047 35.7846 68.914C35.5606 68.214 35.4486 67.416 35.4486 66.52ZM38.7806 70.454C39.5553 70.454 40.1339 70.1973 40.5166 69.684C40.9086 69.1707 41.1046 68.4427 41.1046 67.5C41.1046 66.6133 40.9226 65.9367 40.5586 65.47C40.2039 64.994 39.6719 64.756 38.9626 64.756C38.3279 64.756 37.7819 64.9333 37.3246 65.288C36.8673 65.6333 36.5126 66.0347 36.2606 66.492C36.2606 66.996 36.2979 67.486 36.3726 67.962C36.4473 68.4287 36.5779 68.8487 36.7646 69.222C36.9513 69.5953 37.2079 69.894 37.5346 70.118C37.8613 70.342 38.2766 70.454 38.7806 70.454Z" fill="#333333"/>
</svg>
