<svg width="45" height="75" viewBox="0 0 45 75" fill="none" xmlns="http://www.w3.org/2000/svg">
<path fill-rule="evenodd" clip-rule="evenodd" d="M36.244 22.9633C36.9667 22.6356 37.3776 21.8759 37.2435 21.1157C36.9019 19.1811 35.5735 15.2661 30.5101 10.7779C25.458 6.29887 21.3594 5.3945 19.3659 5.25426C18.5658 5.19965 17.8269 5.67499 17.5654 6.41639L16.3599 9.88314V9.88358L8.33998 32.609C8.12713 33.2124 8.29813 33.852 8.78683 34.278C8.81233 34.3004 8.83987 34.319 8.86739 34.3376L8.86743 34.3376L8.86748 34.3376L8.89087 34.3535L8.90698 34.3649V37.1453C8.90698 37.3869 9.10858 37.5822 9.35698 37.5822C9.60538 37.5822 9.80698 37.3869 9.80698 37.1453V34.6773C9.81461 34.6775 9.82223 34.6785 9.82986 34.6794C9.83843 34.6805 9.84701 34.6816 9.85558 34.6816C10.0869 34.6816 10.3209 34.6323 10.5441 34.5309L11.3802 34.1517V36.8333C11.3802 37.0749 11.5818 37.2702 11.8302 37.2702C12.0786 37.2702 12.2802 37.0749 12.2802 36.8333V34.0276C12.2802 33.935 12.2437 33.8542 12.1933 33.7834L22.7125 29.0138V33.132C22.7125 33.3736 22.9141 33.5689 23.1625 33.5689C23.4109 33.5689 23.6125 33.3736 23.6125 33.132V28.6058L27.6279 26.7852V34.4033C27.6279 34.6449 27.8295 34.8402 28.0779 34.8402C28.3263 34.8402 28.5279 34.6449 28.5279 34.4033V26.4209L28.5277 26.4171L28.5274 26.414L28.5267 26.4103C28.5259 26.4064 28.5248 26.4027 28.5237 26.3989C28.5221 26.3932 28.5204 26.3876 28.5198 26.3815L31.4308 25.0617V31.8309C31.4308 32.0725 31.6324 32.2678 31.8808 32.2678C32.1292 32.2678 32.3308 32.0725 32.3308 31.8309V24.6838C32.3308 24.6808 32.3304 24.6781 32.3298 24.6754C32.3292 24.6729 32.3285 24.6706 32.3278 24.6682C32.3266 24.6642 32.3254 24.6601 32.325 24.6558L32.7894 24.4452L36.244 22.9633ZM18.4168 6.69775C18.5455 6.33295 18.9073 6.10096 19.3002 6.12499C21.1776 6.2578 25.0516 7.12154 29.9031 11.4223C34.768 15.7349 36.0343 19.4389 36.3561 21.2625C36.4218 21.6356 36.2193 22.0096 35.8714 22.1668L33.7204 23.0896C33.7249 22.9821 33.7222 22.8737 33.7033 22.7649C33.4027 21.0637 32.235 17.6214 27.7885 13.6793C23.3511 9.74596 19.747 8.95125 17.9934 8.82761C17.8845 8.81887 17.7778 8.82499 17.6725 8.83766L18.4168 6.69775ZM10.1629 33.7397C9.89653 33.8607 9.60673 33.8197 9.38803 33.6279C9.16933 33.4369 9.09598 33.1626 9.19093 32.8921L17.2113 10.1645C17.3103 9.88402 17.5798 9.6979 17.8782 9.6979C17.8948 9.6979 17.9114 9.69877 17.928 9.69964L17.9281 9.69965C19.5652 9.81542 22.9443 10.5699 27.181 14.3255C31.429 18.0915 32.5347 21.3228 32.8155 22.9135C32.869 23.2163 32.7043 23.5199 32.415 23.651L23.0091 27.9155C22.9912 27.922 22.9755 27.9298 22.9589 27.9381L22.9587 27.9382L10.1629 33.7397ZM20.4022 18.6931C21.1636 18.6599 21.8656 18.3401 22.3795 17.7935C23.4397 16.6659 23.3574 14.9105 22.1964 13.8812C21.0349 12.8514 19.2268 12.9322 18.1662 14.0585V14.059C17.106 15.1866 17.1883 16.942 18.3493 17.9713C18.8794 18.441 19.5571 18.6957 20.2699 18.6957C20.3136 18.6962 20.3581 18.6953 20.4022 18.6931ZM18.8308 14.6483C19.5567 13.8772 20.7942 13.8226 21.5893 14.5269C22.3845 15.2316 22.4407 16.433 21.7149 17.2055C21.363 17.579 20.8824 17.7975 20.3617 17.8206C19.8375 17.8429 19.3416 17.6681 18.9564 17.3269C18.1612 16.6218 18.105 15.4203 18.8308 14.6483ZM14.6697 21.5845C15.013 21.2192 15.4824 21.0056 15.9909 20.9833C16.5003 20.961 16.9867 21.1318 17.3634 21.4652C17.7391 21.7985 17.9592 22.2542 17.9821 22.7479C18.0051 23.242 17.8287 23.7147 17.4853 24.08C17.142 24.4448 16.6726 24.6584 16.1641 24.6807C16.1344 24.682 16.1047 24.6829 16.0755 24.6829C15.5989 24.6829 15.1462 24.5129 14.7921 24.1988C14.4163 23.8655 14.1963 23.4098 14.1733 22.9161C14.1504 22.422 14.3263 21.9493 14.6697 21.5845ZM16.1232 23.8078C16.3914 23.796 16.6393 23.6828 16.8202 23.4906C17.0016 23.2979 17.0947 23.048 17.0821 22.7877C17.07 22.5268 16.9539 22.2865 16.7554 22.1105C16.5687 21.9449 16.3297 21.8549 16.0782 21.8549C16.0624 21.8549 16.0471 21.8553 16.0314 21.8562C15.7632 21.868 15.5152 21.9812 15.3343 22.1734V22.1738C15.1534 22.3661 15.0603 22.6155 15.0724 22.8763C15.0846 23.1372 15.2007 23.3775 15.3991 23.5535C15.5976 23.7292 15.8523 23.8235 16.1232 23.8078ZM26.7999 21.1279C26.8354 21.1279 26.871 21.1275 26.9065 21.1257C27.5203 21.0986 28.0864 20.8413 28.5004 20.4009C28.9144 19.9605 29.1277 19.3899 29.0998 18.794C29.0719 18.1981 28.8069 17.6485 28.3533 17.2465C27.4168 16.4164 25.9597 16.4807 25.1047 17.3894V17.3898C24.6907 17.8302 24.4774 18.4004 24.5053 18.9967C24.5332 19.5922 24.7983 20.1418 25.2519 20.5438C25.6789 20.9226 26.2252 21.1279 26.7999 21.1279ZM25.7689 17.9792C26.2896 17.4248 27.1765 17.3872 27.7462 17.8918C28.0225 18.1369 28.1836 18.4712 28.2007 18.8338C28.2178 19.1964 28.0882 19.5433 27.8358 19.8115C27.5838 20.0794 27.2395 20.2362 26.866 20.2528C26.4925 20.2672 26.1348 20.1431 25.8589 19.8985C25.5826 19.6534 25.4215 19.3196 25.4044 18.957C25.3873 18.5944 25.5165 18.247 25.7689 17.9792ZM13.0299 30.1869C12.1794 29.4324 12.1195 28.1475 12.8962 27.3213C13.6725 26.4956 14.9959 26.437 15.8469 27.1915C16.6969 27.9456 16.7572 29.2305 15.981 30.0562C15.5692 30.494 15.004 30.716 14.437 30.716C13.9344 30.716 13.4299 30.5416 13.0299 30.1869ZM13.6369 29.5416C14.1211 29.9697 14.8744 29.937 15.3163 29.4669C15.7582 28.9968 15.724 28.2659 15.2403 27.8368C14.7561 27.4078 14.0032 27.441 13.5609 27.9111C13.119 28.3808 13.1527 29.1126 13.6369 29.5416ZM24.8244 25.4562C25.9062 24.3054 25.822 22.515 24.6372 21.4643C24.063 20.9549 23.3155 20.6906 22.5429 20.7281C21.7662 20.7622 21.0498 21.0881 20.526 21.6461C19.4442 22.7964 19.5279 24.5868 20.7127 25.6375C21.2698 26.1316 21.9727 26.375 22.6738 26.375C23.4636 26.375 24.2511 26.0657 24.8244 25.4562ZM21.1906 22.235C21.5529 21.8501 22.0474 21.6251 22.5843 21.6015C22.6153 21.5997 22.6468 21.5993 22.6779 21.5993C23.1805 21.5993 23.6575 21.7784 24.031 22.1096C24.8496 22.8353 24.9076 24.0721 24.1602 24.8673C23.4123 25.6611 22.1388 25.7175 21.3198 24.9927C20.5012 24.2665 20.4432 23.0297 21.1906 22.235ZM28.5283 37.3026C28.5283 37.5442 28.3267 37.7395 28.0783 37.7395C27.8299 37.7395 27.6283 37.5442 27.6283 37.3026V35.8521C27.6283 35.6105 27.8299 35.4152 28.0783 35.4152C28.3267 35.4152 28.5283 35.6105 28.5283 35.8521V37.3026ZM11.8302 37.8766C11.5818 37.8766 11.3802 38.0719 11.3802 38.3135V39.764C11.3802 40.0056 11.5818 40.2009 11.8302 40.2009C12.0786 40.2009 12.2802 40.0056 12.2802 39.764V38.3135C12.2802 38.0719 12.0786 37.8766 11.8302 37.8766ZM23.6125 34.7057V36.1561C23.6125 36.3978 23.4109 36.593 23.1625 36.593C22.9141 36.593 22.7125 36.3978 22.7125 36.1561V34.7057C22.7125 34.4641 22.9141 34.2688 23.1625 34.2688C23.4109 34.2688 23.6125 34.4641 23.6125 34.7057Z" fill="#333333"/>
<path d="M2.46781 71V61.004H9.70581V71H8.90781V61.732H3.27981V71H2.46781ZM12.8386 63.552V68.746C12.8386 68.942 12.8293 69.1707 12.8106 69.432C12.8013 69.6933 12.792 69.9267 12.7826 70.132L17.1366 63.552H18.1166V71H17.3606V65.806C17.3606 65.6007 17.3606 65.3673 17.3606 65.106C17.37 64.8353 17.384 64.602 17.4026 64.406L13.0346 71H12.0686V63.552H12.8386ZM27.2219 73.534H26.4379V71H20.3199V63.552H21.1179V70.314H25.4159V63.552H26.2139V70.314H27.2219V73.534ZM35.3911 73.534H34.6071V71H28.4891V63.552H29.2871V70.314H33.5851V63.552H34.3831V70.314H35.3911V73.534ZM39.2903 63.426C40.1303 63.426 40.7557 63.6313 41.1663 64.042C41.577 64.4527 41.7823 65.1013 41.7823 65.988V71H41.1803L41.0403 69.74H40.9983C40.7277 70.16 40.3963 70.5007 40.0043 70.762C39.6217 71.014 39.085 71.14 38.3943 71.14C37.6757 71.14 37.111 70.9627 36.7003 70.608C36.2897 70.244 36.0843 69.726 36.0843 69.054C36.0843 68.3073 36.3877 67.7427 36.9943 67.36C37.601 66.968 38.483 66.7487 39.6403 66.702L40.9983 66.632V66.114C40.9983 65.386 40.849 64.868 40.5503 64.56C40.261 64.252 39.8317 64.098 39.2623 64.098C38.8797 64.098 38.511 64.1493 38.1563 64.252C37.8017 64.3547 37.447 64.49 37.0923 64.658L36.8403 64.014C37.195 63.846 37.5777 63.706 37.9883 63.594C38.4083 63.482 38.8423 63.426 39.2903 63.426ZM40.9983 67.234L39.7383 67.29C38.7863 67.3367 38.077 67.5047 37.6103 67.794C37.1437 68.074 36.9103 68.494 36.9103 69.054C36.9103 69.5207 37.055 69.8753 37.3443 70.118C37.6337 70.3513 38.0303 70.468 38.5343 70.468C39.309 70.468 39.911 70.2487 40.3403 69.81C40.7697 69.362 40.989 68.746 40.9983 67.962V67.234Z" fill="#333333"/>
</svg>
