<svg width="18" height="18" viewBox="0 0 18 18" fill="none" xmlns="http://www.w3.org/2000/svg">
<path d="M11.8125 0C12.3809 0 12.9287 0.0732422 13.4561 0.219727C13.9834 0.366211 14.4756 0.574219 14.9326 0.84375C15.3896 1.11328 15.8057 1.43848 16.1807 1.81934C16.5615 2.19434 16.8867 2.61035 17.1562 3.06738C17.4258 3.52441 17.6338 4.0166 17.7803 4.54395C17.9268 5.07129 18 5.61914 18 6.1875C18 6.75586 17.9268 7.30371 17.7803 7.83105C17.6338 8.3584 17.4258 8.85059 17.1562 9.30762C16.8867 9.76465 16.5615 10.1836 16.1807 10.5645C15.8057 10.9395 15.3896 11.2617 14.9326 11.5312C14.4756 11.8008 13.9834 12.0088 13.4561 12.1553C12.9287 12.3018 12.3809 12.375 11.8125 12.375C11.0801 12.375 10.377 12.252 9.70312 12.0059C9.03516 11.7598 8.41992 11.4053 7.85742 10.9424L0.958008 17.833C0.84668 17.9443 0.714844 18 0.5625 18C0.410156 18 0.27832 17.9443 0.166992 17.833C0.0556641 17.7217 0 17.5898 0 17.4375C0 17.2852 0.0556641 17.1533 0.166992 17.042L7.05762 10.1426C6.59473 9.58008 6.24023 8.96484 5.99414 8.29688C5.74805 7.62305 5.625 6.91992 5.625 6.1875C5.625 5.61914 5.69824 5.07129 5.84473 4.54395C5.99121 4.0166 6.19922 3.52441 6.46875 3.06738C6.73828 2.61035 7.06055 2.19434 7.43555 1.81934C7.81641 1.43848 8.23535 1.11328 8.69238 0.84375C9.14941 0.574219 9.6416 0.366211 10.1689 0.219727C10.6963 0.0732422 11.2441 0 11.8125 0ZM11.8125 11.25C12.5098 11.25 13.166 11.1182 13.7812 10.8545C14.3965 10.585 14.9326 10.2217 15.3896 9.76465C15.8467 9.30762 16.207 8.77148 16.4707 8.15625C16.7402 7.54102 16.875 6.88477 16.875 6.1875C16.875 5.49023 16.7402 4.83398 16.4707 4.21875C16.207 3.60352 15.8467 3.06738 15.3896 2.61035C14.9326 2.15332 14.3965 1.79297 13.7812 1.5293C13.166 1.25977 12.5098 1.125 11.8125 1.125C11.1152 1.125 10.459 1.25977 9.84375 1.5293C9.22852 1.79297 8.69238 2.15332 8.23535 2.61035C7.77832 3.06738 7.41504 3.60352 7.14551 4.21875C6.88184 4.83398 6.75 5.49023 6.75 6.1875C6.75 6.88477 6.88184 7.54102 7.14551 8.15625C7.41504 8.77148 7.77832 9.30762 8.23535 9.76465C8.69238 10.2217 9.22852 10.585 9.84375 10.8545C10.459 11.1182 11.1152 11.25 11.8125 11.25Z" fill="#333333"/>
</svg>
