<svg width="37" height="36" viewBox="0 0 37 36" fill="none" xmlns="http://www.w3.org/2000/svg">
<path fill-rule="evenodd" clip-rule="evenodd" d="M16.7787 3.94524C17.8281 3.94524 18.6818 3.11689 18.6818 2.09762C18.6818 1.07835 17.8281 0.25 16.7787 0.25C16.5303 0.25 16.3287 0.445291 16.3287 0.686893C16.3287 0.928495 16.5303 1.12379 16.7787 1.12379C17.3318 1.12379 17.7818 1.56068 17.7818 2.09762C17.7818 2.63456 17.3318 3.07146 16.7787 3.07146C15.7293 3.07146 14.8761 3.89981 14.8761 4.91864C14.8761 5.93748 15.7293 6.76626 16.7787 6.76626C17.0271 6.76626 17.2287 6.57097 17.2287 6.32937C17.2287 6.08777 17.0271 5.89248 16.7787 5.89248C16.2257 5.89248 15.7761 5.45558 15.7761 4.91864C15.7761 4.3817 16.2261 3.94524 16.7787 3.94524ZM36.5 34.765C36.5 35.0066 36.2984 35.2019 36.05 35.2019H0.95C0.7016 35.2019 0.5 35.0066 0.5 34.765V31.5809C0.5 31.3393 0.7016 31.144 0.95 31.144H1.2911V30.2659C1.2911 21.362 8.50325 14.0637 17.5536 13.5849C16.5114 13.21 15.7654 12.2379 15.7654 11.0972C15.7654 9.6336 16.9921 8.44219 18.5 8.44219C20.0079 8.44219 21.2347 9.63316 21.2347 11.0972C21.2347 12.2375 20.4886 13.21 19.4464 13.5849C28.4968 14.0637 35.7089 21.362 35.7089 30.2659V31.144H36.05C36.2984 31.144 36.5 31.3393 36.5 31.5809V34.765ZM1.4 32.0178V34.3281H35.6V32.0178H1.4ZM18.5 9.31597C17.4884 9.31597 16.6653 10.1151 16.6653 11.0972C16.6653 12.0793 17.4884 12.8784 18.5 12.8784C19.5116 12.8784 20.3347 12.0793 20.3347 11.0972C20.3347 10.1151 19.5116 9.31597 18.5 9.31597ZM18.5 14.4324C9.5072 14.4324 2.1911 21.5354 2.1911 30.2659V31.144H34.8089V30.2659C34.8089 21.5354 27.4928 14.4324 18.5 14.4324ZM4.56215 27.2544C5.5175 22.1558 9.4649 17.9796 14.6187 16.6156C14.859 16.55 15.1061 16.689 15.1713 16.9223C15.2366 17.1551 15.0953 17.395 14.8554 17.4588C10.0341 18.735 6.34145 22.6412 5.44775 27.4108C5.40815 27.6218 5.2187 27.7695 5.00539 27.7695C4.97884 27.7695 4.95185 27.7673 4.9244 27.762C4.68005 27.7188 4.5176 27.4916 4.56215 27.2544ZM22.9132 2.09762C22.9132 3.11689 22.0595 3.94524 21.0101 3.94524C20.4571 3.94524 20.0075 4.3817 20.0075 4.91864C20.0075 5.45558 20.4571 5.89248 21.0101 5.89248C21.2585 5.89248 21.4601 6.08777 21.4601 6.32937C21.4601 6.57097 21.2585 6.76626 21.0101 6.76626C19.9607 6.76626 19.1075 5.93748 19.1075 4.91864C19.1075 3.89981 19.9607 3.07146 21.0101 3.07146C21.5632 3.07146 22.0132 2.63456 22.0132 2.09762C22.0132 1.56068 21.5632 1.12379 21.0101 1.12379C20.7617 1.12379 20.5601 0.928495 20.5601 0.686893C20.5601 0.445291 20.7617 0.25 21.0101 0.25C22.0595 0.25 22.9132 1.07835 22.9132 2.09762Z" fill="#333333"/>
</svg>
