<svg width="36" height="36" viewBox="0 0 36 36" fill="none" xmlns="http://www.w3.org/2000/svg">
<path fill-rule="evenodd" clip-rule="evenodd" d="M1.2013 24.242C1.19005 24.1673 0.98485 22.6438 2.30875 21.4406C1.12705 21.1444 0.25 20.1037 0.25 18.8656V18.1709C0.25 16.7497 1.40335 15.5884 2.84875 15.5146V12.9378C2.27905 12.8199 1.76245 12.5206 1.3831 12.0758C0.8845 11.4917 0.682 10.7293 0.82735 9.98354C1.92715 4.34369 7.01575 0.25 12.9283 0.25H22.2456C27.9812 0.25 32.9097 4.03481 34.2304 9.45403L34.3326 9.87126C34.5175 10.631 34.3371 11.4183 33.838 12.0308C33.4767 12.4747 32.9835 12.7788 32.4336 12.9142V15.5137C33.8817 15.5845 35.0386 16.7471 35.0386 18.1705V18.8651C35.0386 20.123 34.1346 21.1772 32.9254 21.4546C34.0909 22.719 34.0927 24.1166 34.0918 24.1839C34.0891 24.4233 33.8884 24.616 33.6418 24.616C33.1365 24.616 32.785 24.685 32.4853 24.7877V27.7406C32.8768 27.8822 33.23 28.1172 33.5073 28.4348C33.9766 28.9727 34.1777 29.68 34.0581 30.3751L33.7831 31.9776C33.4627 33.8449 31.8144 35.2006 29.8641 35.2006H5.42455C3.4747 35.2006 1.82635 33.8449 1.50505 31.9772L1.2301 30.3747C1.11085 29.6796 1.31155 28.9722 1.7809 28.4344C2.08105 28.0901 2.46985 27.8415 2.90095 27.7057V24.8213C2.58055 24.699 2.20705 24.6155 1.64635 24.6155C1.42315 24.6155 1.2337 24.4565 1.2013 24.242ZM28.2679 27.6126H31.5007C31.5282 27.6048 31.5561 27.5986 31.5835 27.5965V25.1966C31.1245 25.4142 30.5661 25.6186 29.6386 25.6186C28.5299 25.6186 27.9472 25.3269 27.4327 25.0693L27.4314 25.0686C26.9467 24.8252 26.5278 24.6155 25.6368 24.6155C24.7467 24.6155 24.3282 24.8252 23.844 25.0682C23.3301 25.3259 22.7473 25.6182 21.6381 25.6182C20.5293 25.6182 19.9465 25.3262 19.4324 25.0685L19.4317 25.0682C18.9475 24.8252 18.5286 24.6155 17.638 24.6155C16.7479 24.6155 16.3294 24.8252 15.8452 25.0682C15.3313 25.3259 14.7481 25.6182 13.6393 25.6182C12.5314 25.6182 11.9492 25.3264 11.4351 25.0688L11.4339 25.0682L11.4332 25.0678C10.9493 24.825 10.5317 24.6155 9.64195 24.6155C8.75185 24.6155 8.3338 24.8252 7.8496 25.0682C7.3357 25.3259 6.75295 25.6182 5.64415 25.6182C4.78375 25.6182 4.2415 25.4421 3.80095 25.2429V27.6126H15.7422C17.4679 27.6126 19.0901 28.2653 20.311 29.4502L22.0048 31.0947L23.6986 29.4502C24.9195 28.2653 26.5422 27.6126 28.2679 27.6126ZM32.8957 31.8334L33.1707 30.2309C33.2463 29.7897 33.1189 29.3405 32.8214 28.9993C32.5744 28.7166 32.2324 28.5415 31.8607 28.4868H28.2679C26.7825 28.4868 25.3856 29.0487 24.3349 30.0684L22.323 32.0217C22.2352 32.1069 22.12 32.1498 22.0048 32.1498C21.8896 32.1498 21.7744 32.1069 21.6867 32.0217L19.6747 30.0684C18.624 29.0487 17.2276 28.4868 15.7422 28.4868H3.42835C3.0571 28.5415 2.71465 28.7166 2.46805 28.9993C2.17015 29.341 2.0428 29.7901 2.1184 30.2314L2.39335 31.8339C2.6413 33.2782 3.91615 34.3268 5.42455 34.3268H29.8641C31.3729 34.3268 32.6478 33.2787 32.8957 31.8334ZM29.6408 24.7449C30.5319 24.7449 30.9504 24.5351 31.435 24.2922C31.8661 24.076 32.3462 23.8352 33.1473 23.7636C33.0465 23.245 32.7328 22.3315 31.7581 21.58C31.7465 21.5712 31.7382 21.5601 31.7298 21.549C31.7245 21.5419 31.7192 21.5349 31.7131 21.5284H3.6817C3.65065 21.5621 3.61735 21.5949 3.5746 21.6184C2.37355 22.2755 2.1292 23.2402 2.0905 23.7588C2.92045 23.8242 3.41163 24.0704 3.85213 24.2913L3.85405 24.2922C4.33825 24.5351 4.7563 24.7449 5.6464 24.7449C6.5365 24.7449 6.95455 24.5351 7.43875 24.2922C7.95265 24.0345 8.53585 23.7422 9.6442 23.7422C10.7516 23.7422 11.3339 24.034 11.8479 24.2916L11.8492 24.2922C12.3334 24.5351 12.7515 24.7449 13.6416 24.7449C14.5317 24.7449 14.9502 24.5351 15.4344 24.2922C15.9483 24.0345 16.531 23.7422 17.6403 23.7422C18.7495 23.7422 19.3322 24.0342 19.8464 24.2919L19.847 24.2922C20.3313 24.5351 20.7498 24.7449 21.6403 24.7449C22.5304 24.7449 22.9489 24.5351 23.4331 24.2922C23.947 24.0345 24.5298 23.7422 25.639 23.7422C26.7482 23.7422 27.3309 24.0339 27.8453 24.2915L27.8467 24.2922C28.3314 24.5351 28.7498 24.7449 29.6408 24.7449ZM3.74875 12.9942V15.4897H7.21555C8.8459 15.4897 10.3782 16.1057 11.5311 17.225L13.3301 18.9717L15.1288 17.225C16.2822 16.1062 17.8144 15.4897 19.4443 15.4897H31.5336V12.9942H3.74875ZM12.9283 1.12335C7.4482 1.12335 2.73085 4.91777 1.7116 10.1456C1.6162 10.6345 1.7494 11.1343 2.07655 11.5175C2.4037 11.9006 2.88475 12.1204 3.3973 12.1204H31.7878C32.3152 12.1204 32.8053 11.8901 33.1329 11.4882C33.4605 11.0867 33.5788 10.5703 33.4569 10.0718L33.3552 9.655C32.1312 4.6316 27.5627 1.12335 22.246 1.12335H12.9283ZM2.99365 16.3805C1.9771 16.3805 1.15 17.1831 1.15 18.17H1.14955V18.8647C1.14955 19.8516 1.97665 20.6542 2.9932 20.6542H32.2954C33.312 20.6542 34.1391 19.8512 34.1391 18.8647V18.17C34.1391 17.1831 33.312 16.3805 32.2954 16.3805C32.2284 16.3805 32.1663 16.3644 32.1091 16.339C32.1047 16.3403 32.1003 16.3415 32.0958 16.3428C32.0597 16.3531 32.0232 16.3635 31.9836 16.3635H19.4447C18.0552 16.3635 16.7488 16.8886 15.7656 17.8428L13.6488 19.8984C13.5646 19.9805 13.4503 20.0264 13.3306 20.0264C13.2109 20.0264 13.0971 19.9805 13.0125 19.8984L10.8952 17.8428C9.9124 16.8891 8.60605 16.3635 7.216 16.3635H3.4531C3.44344 16.3654 3.43403 16.3679 3.42463 16.3705C3.40603 16.3755 3.38748 16.3805 3.36715 16.3805H2.99365ZM22.9201 4.07238C23.0087 4.17199 23.1343 4.22311 23.2598 4.22311C23.3642 4.22311 23.4695 4.18772 23.5546 4.11607C23.7422 3.95791 23.7625 3.6818 23.5996 3.49961L23.1473 2.99369C22.9849 2.8115 22.7005 2.79228 22.5129 2.95C22.3252 3.10815 22.305 3.38427 22.4678 3.56646L22.9201 4.07238ZM14.389 4.32534C14.4776 4.42495 14.6032 4.47606 14.7288 4.47606C14.8332 4.47606 14.9384 4.44068 15.0235 4.36903C15.2111 4.21087 15.2314 3.93475 15.0685 3.75257L14.6162 3.24665C14.4538 3.06403 14.1694 3.0448 13.9818 3.20296C13.7941 3.36111 13.7739 3.63723 13.9368 3.81941L14.389 4.32534ZM16.4369 7.14942C16.3838 7.16951 16.3294 7.17869 16.2758 7.17869C16.0949 7.17869 15.9244 7.07209 15.8555 6.8982C15.7664 6.67277 15.8821 6.42024 16.1143 6.33374L16.7582 6.09388C16.9909 6.00738 17.251 6.1201 17.3396 6.3451C17.4287 6.57053 17.3131 6.82306 17.0809 6.90956L16.4369 7.14942ZM8.34864 4.71592C8.40219 4.71592 8.45664 4.70675 8.50974 4.68665L9.15369 4.44679C9.38589 4.36029 9.50154 4.10776 9.41244 3.88233C9.32379 3.65733 9.06414 3.54417 8.83104 3.63111L8.18709 3.87097C7.95489 3.95747 7.83924 4.21 7.92834 4.43544C7.99719 4.60888 8.16729 4.71592 8.34864 4.71592ZM18.8188 4.56694C18.7657 4.58704 18.7112 4.59621 18.6577 4.59621C18.4768 4.59621 18.3062 4.48917 18.2374 4.31529C18.1483 4.08985 18.2639 3.83733 18.4961 3.75082L19.1405 3.51097C19.3732 3.4249 19.6333 3.53718 19.7219 3.76262C19.811 3.98806 19.6954 4.24058 19.4632 4.32709L18.8188 4.56694ZM26.4238 5.42675C26.4774 5.42675 26.5318 5.41757 26.5849 5.39748L27.2289 5.15762C27.4611 5.07112 27.5767 4.81859 27.4876 4.59316C27.399 4.36816 27.1393 4.255 26.9062 4.34194L26.2623 4.5818C26.0301 4.6683 25.9144 4.92083 26.0035 5.14626C26.0724 5.31971 26.2425 5.42675 26.4238 5.42675ZM11.6273 6.47311L10.9451 6.37568C10.6994 6.34073 10.5293 6.11878 10.5649 5.88024C10.6009 5.6417 10.8232 5.47437 11.0756 5.5115L11.7578 5.60893C12.0035 5.64388 12.1736 5.86626 12.1376 6.1048C12.1048 6.32194 11.9126 6.47791 11.693 6.47791C11.6719 6.47791 11.6498 6.47616 11.6273 6.47311ZM21.4423 6.32718L22.1249 6.42461C22.1474 6.42767 22.1695 6.42941 22.1906 6.42941C22.4102 6.42941 22.6024 6.27344 22.6352 6.05587C22.6712 5.81733 22.5011 5.59539 22.2554 5.56043L21.5728 5.46301C21.3208 5.42674 21.098 5.59276 21.062 5.83174C21.0269 6.07029 21.197 6.29223 21.4423 6.32718Z" fill="#333333"/>
</svg>
