<svg width="33" height="33" viewBox="0 0 33 33" fill="none" xmlns="http://www.w3.org/2000/svg">
<path fill-rule="evenodd" clip-rule="evenodd" d="M5.0175 31.9099C4.4775 32.4967 3.7125 32.7675 2.9475 32.7675C2.2275 32.7675 1.4625 32.4967 0.8775 31.9099C-0.2925 30.7365 -0.2925 28.8859 0.8775 27.7125C1.9125 26.6744 3.5325 26.5841 4.7025 27.4417L9.8325 22.2963L8.1225 20.5812C7.0875 19.498 7.0875 17.7829 8.1225 16.7448C8.6175 16.2483 9.2925 15.9775 10.0125 15.9775C10.7325 15.9775 11.4075 16.2483 11.9025 16.7448L13.6125 18.4599L14.1525 17.9183C14.1975 17.8732 14.2425 17.828 14.2875 17.828L11.1825 14.7138C10.5075 14.0368 10.5075 12.9084 11.1825 12.2314C11.8575 11.5544 12.9825 11.5544 13.6575 12.2314L16.7625 15.4811L17.3475 14.8943C17.4375 14.804 17.5725 14.7589 17.7075 14.7589L15.8625 12.9084C14.8275 11.8252 14.8275 10.1101 15.8625 9.07199C16.3575 8.57551 17.0325 8.30471 17.7525 8.30471C18.4725 8.30471 19.1475 8.57551 19.6425 9.07199L21.3525 10.7871C21.375 10.7645 21.3863 10.742 21.3975 10.7194C21.4088 10.6968 21.42 10.6743 21.4425 10.6517L22.0725 10.0198L18.9675 6.90555C18.2925 6.22853 18.2925 5.10018 18.9675 4.42316C19.6425 3.74615 20.7675 3.74615 21.4425 4.42316L24.5475 7.53743L25.2675 6.81528C25.3125 6.77014 25.4025 6.72501 25.4475 6.72501L23.6925 4.96477C23.1975 4.4683 22.9275 3.79128 22.9275 3.06913C22.9275 2.34698 23.1975 1.66997 23.6925 1.17349C24.7725 0.135403 26.4825 0.135403 27.5175 1.17349L29.2275 2.8886L31.9725 0.135403C32.1525 -0.0451342 32.4225 -0.0451342 32.6025 0.135403C32.7825 0.31594 32.7825 0.586746 32.6025 0.767282L29.8575 3.52047L31.5675 5.23558C32.6025 6.3188 32.6025 8.0339 31.5675 9.07199C31.0725 9.56847 30.3975 9.83928 29.6775 9.83928C28.9575 9.83928 28.2825 9.56847 27.7875 9.07199L26.0325 7.31176C26.0325 7.40202 25.9875 7.44716 25.9425 7.49229L25.2225 8.21444L28.3275 11.3287C29.0025 12.0057 29.0025 13.1341 28.3275 13.8111C27.9675 14.127 27.5175 14.3076 27.0675 14.3076C26.6175 14.3076 26.1675 14.1722 25.8075 13.8111L22.7025 10.6968L22.0725 11.3287C22.0275 11.3738 21.9825 11.419 21.9375 11.419L23.6475 13.1341C24.1425 13.6306 24.4125 14.3076 24.4125 15.0297C24.4125 15.7519 24.1425 16.4289 23.6475 16.9254C23.1525 17.467 22.4325 17.7378 21.7575 17.7378C21.0825 17.7378 20.4075 17.467 19.8675 16.9254L18.0225 15.0749C18.0225 15.2103 17.9775 15.3457 17.8875 15.4359L17.3025 16.0227L20.4075 19.1369C21.0825 19.814 21.0825 20.9423 20.4075 21.6193C20.0475 21.9353 19.5975 22.1158 19.1475 22.1158C18.6975 22.1158 18.2475 21.9804 17.8875 21.6193L14.7825 18.5051C14.76 18.5276 14.7487 18.5502 14.7375 18.5728C14.7262 18.5953 14.715 18.6179 14.6925 18.6405L14.1525 19.1821L15.8625 20.8972C16.3575 21.3937 16.6275 22.0707 16.6275 22.7928C16.6275 23.515 16.3575 24.192 15.8625 24.6885C15.3675 25.2301 14.6475 25.5009 13.9725 25.5009C13.2975 25.5009 12.6225 25.2301 12.0825 24.6885L10.3725 22.9734L5.2875 28.0735C6.1425 29.247 6.0525 30.8719 5.0175 31.9099ZM24.4125 1.7151C24.0525 2.03104 23.8725 2.48239 23.8725 2.97886C23.8725 3.47534 24.0525 3.92668 24.4125 4.24262L28.4625 8.30471C28.7775 8.66578 29.2275 8.84632 29.7225 8.84632C30.1725 8.84632 30.6225 8.66578 30.9825 8.30471C31.7025 7.62769 31.7025 6.49934 30.9825 5.77719L26.9325 1.7151C26.5725 1.35403 26.1225 1.17349 25.6725 1.17349C25.2225 1.17349 24.7725 1.35403 24.4125 1.7151ZM20.3175 4.69397C20.0925 4.69397 19.8675 4.78424 19.6875 4.96477C19.3275 5.32585 19.3275 5.86746 19.6875 6.22853L26.5725 13.0438C26.8875 13.3597 27.4275 13.4049 27.7875 13.0438C28.1475 12.7279 28.1475 12.1863 27.7875 11.8252L20.9475 4.96477C20.7675 4.78424 20.5425 4.69397 20.3175 4.69397ZM17.7525 9.07199C17.3025 9.07199 16.8525 9.25253 16.4925 9.6136C15.8175 10.3358 15.8175 11.4641 16.4925 12.1411L20.5425 16.2032C21.2175 16.9254 22.3425 16.9254 23.0625 16.2032C23.4225 15.8873 23.6025 15.4359 23.6025 14.9395C23.6025 14.4881 23.4225 14.0368 23.0625 13.6757L19.0125 9.6136C18.6975 9.25253 18.2475 9.07199 17.7525 9.07199ZM12.4425 12.5925C12.2175 12.5925 11.9925 12.6827 11.8125 12.8633C11.4975 13.2243 11.4975 13.766 11.8125 14.0819L18.6975 20.9423C19.0125 21.2582 19.5525 21.2582 19.9125 20.9423C20.2725 20.6264 20.2725 20.0848 19.9125 19.7237L13.0725 12.8633C12.8925 12.6827 12.6675 12.5925 12.4425 12.5925ZM9.9675 16.8802C9.5175 16.8802 9.0675 17.0608 8.7075 17.4218C8.0325 18.0989 8.0325 19.2723 8.7075 19.9494L12.7575 24.0114C13.4325 24.7336 14.5575 24.7336 15.2775 24.0114C15.6375 23.6955 15.8175 23.2442 15.8175 22.7477C15.8175 22.2963 15.6375 21.845 15.2775 21.4839L11.2275 17.4218C10.9125 17.0608 10.4625 16.8802 9.9675 16.8802ZM2.9475 27.7576C2.4525 27.7576 1.9125 27.9381 1.5075 28.3443C0.6975 29.1568 0.697499 30.4656 1.4625 31.2781C2.2725 32.0905 3.5775 32.0905 4.3875 31.2781C5.1975 30.4656 5.1975 29.1568 4.3875 28.3443C3.9825 27.9381 3.4875 27.7576 2.9475 27.7576ZM12.9825 4.42316C12.5325 4.64883 12.2175 5.00991 12.0375 5.46125C11.8575 5.91259 11.9025 6.40907 12.1275 6.86041C12.4425 7.49229 13.1175 7.8985 13.7925 7.8985C14.0625 7.8985 14.3325 7.85337 14.6025 7.71797C14.8275 7.6277 14.9175 7.35689 14.8275 7.13122C14.7375 6.90555 14.4675 6.81528 14.2425 6.90555C13.7925 7.13122 13.2075 6.95068 12.9825 6.45421C12.7575 6.00286 12.9375 5.41612 13.4325 5.19045C13.8825 4.96478 14.1975 4.6037 14.3775 4.15236C14.5575 3.70101 14.5125 3.20454 14.2875 2.75319C14.0625 2.30185 13.7025 1.98591 13.2525 1.80538C12.8025 1.62484 12.3075 1.66997 11.8575 1.89564C11.6325 1.98591 11.5425 2.25672 11.6325 2.48239C11.7225 2.70806 11.9925 2.79833 12.2175 2.70806C12.6675 2.48239 13.2525 2.66293 13.4775 3.1594C13.6125 3.61075 13.4325 4.19749 12.9825 4.42316ZM9.3375 6.1834C8.8875 6.40907 8.5725 6.77014 8.3925 7.22149C8.2125 7.67283 8.2575 8.16931 8.4825 8.62065C8.7075 9.07199 9.0675 9.38793 9.5175 9.56847C9.6975 9.6136 9.9225 9.65874 10.1025 9.65874C10.3725 9.65874 10.6425 9.6136 10.9125 9.4782C11.1375 9.38793 11.2275 9.11713 11.1375 8.89146C11.0475 8.66578 10.7775 8.57552 10.5525 8.66578C10.3275 8.75605 10.0575 8.80119 9.8325 8.71092C9.6075 8.62065 9.3825 8.44011 9.2925 8.21444C9.2025 7.98877 9.1575 7.71796 9.2475 7.49229C9.3375 7.26662 9.5175 7.04095 9.7425 6.95068C10.1925 6.72501 10.5075 6.36393 10.6875 5.91259C10.8675 5.46125 10.8225 4.96477 10.5975 4.51343C10.1475 3.61074 9.0675 3.20453 8.1225 3.65588C7.8975 3.74615 7.8075 4.01695 7.8975 4.24262C7.9875 4.4683 8.2575 4.55856 8.4825 4.4683C8.9325 4.24262 9.5175 4.42316 9.7425 4.91964C9.9675 5.41611 9.7875 5.95773 9.3375 6.1834Z" fill="#333333"/>
</svg>
