<svg width="30" height="36" viewBox="0 0 30 36" fill="none" xmlns="http://www.w3.org/2000/svg">
<path fill-rule="evenodd" clip-rule="evenodd" d="M28.244 17.9633C28.9667 17.6356 29.3776 16.8759 29.2435 16.1157C28.9019 14.1811 27.5735 10.2661 22.5101 5.7779C17.458 1.29887 13.3594 0.3945 11.3659 0.254258C10.5658 0.199646 9.82688 0.674985 9.56543 1.41639L8.35988 4.88314V4.88358L0.339984 27.609C0.127134 28.2124 0.298134 28.852 0.786834 29.278C0.812328 29.3004 0.839868 29.319 0.867385 29.3376L0.867426 29.3376L0.867484 29.3376L0.890868 29.3535L0.906985 29.3649V32.1453C0.906985 32.3869 1.10858 32.5822 1.35698 32.5822C1.60538 32.5822 1.80698 32.3869 1.80698 32.1453V29.6773C1.81461 29.6775 1.82223 29.6785 1.82986 29.6794C1.83843 29.6805 1.84701 29.6816 1.85558 29.6816C2.08688 29.6816 2.32088 29.6323 2.54408 29.5309L3.38018 29.1517V31.8333C3.38018 32.0749 3.58178 32.2702 3.83018 32.2702C4.07858 32.2702 4.28018 32.0749 4.28018 31.8333V29.0276C4.28018 28.935 4.24373 28.8542 4.19333 28.7834L14.7125 24.0138V28.132C14.7125 28.3736 14.9141 28.5689 15.1625 28.5689C15.4109 28.5689 15.6125 28.3736 15.6125 28.132V23.6058L19.6279 21.7852V29.4033C19.6279 29.6449 19.8295 29.8402 20.0779 29.8402C20.3263 29.8402 20.5279 29.6449 20.5279 29.4033V21.4209L20.5277 21.4171L20.5274 21.414L20.5267 21.4103C20.5259 21.4064 20.5248 21.4027 20.5237 21.3989C20.5221 21.3932 20.5204 21.3876 20.5198 21.3815L23.4308 20.0617V26.8309C23.4308 27.0725 23.6324 27.2678 23.8808 27.2678C24.1292 27.2678 24.3308 27.0725 24.3308 26.8309V19.6838C24.3308 19.6808 24.3304 19.6781 24.3298 19.6754C24.3292 19.6729 24.3285 19.6706 24.3278 19.6682C24.3266 19.6642 24.3254 19.6601 24.325 19.6558L24.7894 19.4452L28.244 17.9633ZM10.4168 1.69775C10.5455 1.33295 10.9073 1.10096 11.3002 1.12499C13.1776 1.2578 17.0516 2.12154 21.9031 6.42232C26.768 10.7349 28.0343 14.4389 28.3561 16.2625C28.4218 16.6356 28.2193 17.0096 27.8714 17.1668L25.7204 18.0896C25.7249 17.9821 25.7222 17.8737 25.7033 17.7649C25.4027 16.0637 24.235 12.6214 19.7885 8.67931C15.3511 4.74596 11.747 3.95125 9.99338 3.82761C9.88448 3.81887 9.77783 3.82499 9.67253 3.83766L10.4168 1.69775ZM2.16293 28.7397C1.89653 28.8607 1.60673 28.8197 1.38803 28.6279C1.16933 28.4369 1.09598 28.1626 1.19093 27.8921L9.21129 5.1645C9.31029 4.88402 9.57983 4.6979 9.87818 4.6979C9.8948 4.6979 9.91143 4.69877 9.92805 4.69964L9.92813 4.69965C11.5652 4.81542 14.9443 5.56994 19.181 9.32547C23.429 13.0915 24.5347 16.3228 24.8155 17.9135C24.869 18.2163 24.7043 18.5199 24.415 18.651L15.0091 22.9155C14.9912 22.922 14.9755 22.9298 14.9589 22.9381L14.9587 22.9382L2.16293 28.7397ZM12.4022 13.6931C13.1636 13.6599 13.8656 13.3401 14.3795 12.7935C15.4397 11.6659 15.3574 9.91047 14.1964 8.88115C13.0349 7.8514 11.2268 7.93222 10.1662 9.05853V9.05897C9.10598 10.1866 9.18833 11.942 10.3493 12.9713C10.8794 13.441 11.5571 13.6957 12.2699 13.6957C12.3136 13.6962 12.3581 13.6953 12.4022 13.6931ZM10.8308 9.64834C11.5567 8.87722 12.7942 8.82261 13.5893 9.52688C14.3845 10.2316 14.4407 11.433 13.7149 12.2055C13.363 12.579 12.8824 12.7975 12.3617 12.8206C11.8375 12.8429 11.3416 12.6681 10.9564 12.3269C10.1612 11.6218 10.105 10.4203 10.8308 9.64834ZM6.66968 16.5845C7.01303 16.2192 7.48238 16.0056 7.99088 15.9833C8.50029 15.961 8.98674 16.1318 9.36338 16.4652C9.73914 16.7985 9.95919 17.2542 9.98213 17.7479C10.0051 18.242 9.82869 18.7147 9.48534 19.08C9.14198 19.4448 8.67264 19.6584 8.16413 19.6807C8.13443 19.682 8.10473 19.6829 8.07549 19.6829C7.59893 19.6829 7.14623 19.5129 6.79208 19.1988C6.41633 18.8655 6.19628 18.4098 6.17333 17.9161C6.15038 17.422 6.32633 16.9493 6.66968 16.5845ZM8.12318 18.8078C8.39139 18.796 8.63933 18.6828 8.82024 18.4906C9.00158 18.2979 9.09473 18.048 9.08213 17.7877C9.06999 17.5268 8.95389 17.2865 8.75544 17.1105C8.56869 16.9449 8.32974 16.8549 8.07818 16.8549C8.06243 16.8549 8.04714 16.8553 8.03139 16.8562C7.76318 16.868 7.51523 16.9812 7.33433 17.1734V17.1738C7.15343 17.3661 7.06028 17.6155 7.07243 17.8763C7.08458 18.1372 7.20068 18.3775 7.39914 18.5535C7.59759 18.7292 7.85228 18.8235 8.12318 18.8078ZM18.7999 16.1279C18.8354 16.1279 18.871 16.1275 18.9065 16.1257C19.5203 16.0986 20.0864 15.8413 20.5004 15.4009C20.9144 14.9605 21.1277 14.3899 21.0998 13.794C21.0719 13.1981 20.8069 12.6485 20.3533 12.2465C19.4168 11.4164 17.9597 11.4807 17.1047 12.3894V12.3898C16.6907 12.8302 16.4774 13.4004 16.5053 13.9967C16.5332 14.5922 16.7983 15.1418 17.2519 15.5438C17.6789 15.9226 18.2252 16.1279 18.7999 16.1279ZM17.7689 12.9792C18.2896 12.4248 19.1765 12.3872 19.7462 12.8918C20.0225 13.1369 20.1836 13.4712 20.2007 13.8338C20.2178 14.1964 20.0882 14.5433 19.8358 14.8115C19.5838 15.0794 19.2395 15.2362 18.866 15.2528C18.4925 15.2672 18.1348 15.1431 17.8589 14.8985C17.5826 14.6534 17.4215 14.3196 17.4044 13.957C17.3873 13.5944 17.5165 13.247 17.7689 12.9792ZM5.02988 25.1869C4.17938 24.4324 4.11953 23.1475 4.89623 22.3213C5.67248 21.4956 6.99593 21.437 7.84688 22.1915C8.69693 22.9456 8.75723 24.2305 7.98098 25.0562C7.56923 25.494 7.00403 25.716 6.43703 25.716C5.93438 25.716 5.42993 25.5416 5.02988 25.1869ZM5.63693 24.5416C6.12113 24.9697 6.87443 24.937 7.31633 24.4669C7.75823 23.9968 7.72403 23.2659 7.24028 22.8368C6.75608 22.4078 6.00323 22.441 5.56088 22.9111C5.11898 23.3808 5.15273 24.1126 5.63693 24.5416ZM16.8244 20.4562C17.9062 19.3054 17.822 17.515 16.6372 16.4643C16.063 15.9549 15.3155 15.6906 14.5429 15.7281C13.7662 15.7622 13.0498 16.0881 12.526 16.6461C11.4442 17.7964 11.5279 19.5868 12.7127 20.6375C13.2698 21.1316 13.9727 21.375 14.6738 21.375C15.4636 21.375 16.2511 21.0657 16.8244 20.4562ZM13.1906 17.235C13.5529 16.8501 14.0474 16.6251 14.5843 16.6015C14.6153 16.5997 14.6468 16.5993 14.6779 16.5993C15.1805 16.5993 15.6575 16.7784 16.031 17.1096C16.8496 17.8353 16.9076 19.0721 16.1602 19.8673C15.4123 20.6611 14.1388 20.7175 13.3198 19.9927C12.5012 19.2665 12.4432 18.0297 13.1906 17.235ZM20.5283 32.3026C20.5283 32.5442 20.3267 32.7395 20.0783 32.7395C19.8299 32.7395 19.6283 32.5442 19.6283 32.3026V30.8521C19.6283 30.6105 19.8299 30.4152 20.0783 30.4152C20.3267 30.4152 20.5283 30.6105 20.5283 30.8521V32.3026ZM3.83018 32.8766C3.58178 32.8766 3.38018 33.0719 3.38018 33.3135V34.764C3.38018 35.0056 3.58178 35.2009 3.83018 35.2009C4.07858 35.2009 4.28018 35.0056 4.28018 34.764V33.3135C4.28018 33.0719 4.07858 32.8766 3.83018 32.8766ZM15.6125 29.7057V31.1561C15.6125 31.3978 15.4109 31.593 15.1625 31.593C14.9141 31.593 14.7125 31.3978 14.7125 31.1561V29.7057C14.7125 29.4641 14.9141 29.2688 15.1625 29.2688C15.4109 29.2688 15.6125 29.4641 15.6125 29.7057Z" fill="#333333"/>
</svg>
