<svg width="24" height="22" viewBox="0 0 24 22" fill="none" xmlns="http://www.w3.org/2000/svg">
<path d="M18.75 17C19.0625 17 19.3555 17.0586 19.6289 17.1758C19.9023 17.293 20.1406 17.4531 20.3438 17.6562C20.5469 17.8594 20.707 18.0977 20.8242 18.3711C20.9414 18.6445 21 18.9375 21 19.25C21 19.5625 20.9414 19.8555 20.8242 20.1289C20.707 20.4023 20.5469 20.6406 20.3438 20.8438C20.1406 21.0469 19.9023 21.207 19.6289 21.3242C19.3555 21.4414 19.0625 21.5 18.75 21.5C18.4375 21.5 18.1445 21.4414 17.8711 21.3242C17.5977 21.207 17.3594 21.0469 17.1562 20.8438C16.9531 20.6406 16.793 20.4023 16.6758 20.1289C16.5586 19.8555 16.5 19.5625 16.5 19.25C16.5 19.0078 16.543 18.7578 16.6289 18.5H10.3711C10.457 18.7578 10.5 19.0078 10.5 19.25C10.5 19.5625 10.4414 19.8555 10.3242 20.1289C10.207 20.4023 10.0469 20.6406 9.84375 20.8438C9.64062 21.0469 9.40234 21.207 9.12891 21.3242C8.85547 21.4414 8.5625 21.5 8.25 21.5C7.9375 21.5 7.64453 21.4414 7.37109 21.3242C7.09766 21.207 6.85938 21.0469 6.65625 20.8438C6.45312 20.6406 6.29297 20.4023 6.17578 20.1289C6.05859 19.8555 6 19.5625 6 19.25C6 18.8203 6.11328 18.4219 6.33984 18.0547C6.57422 17.6875 6.88672 17.4102 7.27734 17.2227L2.21484 2H0V0.5H3.29297L4.28906 3.5H24L20.5078 14H7.79297L8.78906 17H18.75ZM4.79297 5L7.28906 12.5H19.418L21.9141 5H4.79297ZM9 19.25C9 19.0469 8.92578 18.8711 8.77734 18.7227C8.62891 18.5742 8.45312 18.5 8.25 18.5C8.04688 18.5 7.87109 18.5742 7.72266 18.7227C7.57422 18.8711 7.5 19.0469 7.5 19.25C7.5 19.4531 7.57422 19.6289 7.72266 19.7773C7.87109 19.9258 8.04688 20 8.25 20C8.45312 20 8.62891 19.9258 8.77734 19.7773C8.92578 19.6289 9 19.4531 9 19.25ZM18.75 20C18.9531 20 19.1289 19.9258 19.2773 19.7773C19.4258 19.6289 19.5 19.4531 19.5 19.25C19.5 19.0469 19.4258 18.8711 19.2773 18.7227C19.1289 18.5742 18.9531 18.5 18.75 18.5C18.5469 18.5 18.3711 18.5742 18.2227 18.7227C18.0742 18.8711 18 19.0469 18 19.25C18 19.4531 18.0742 19.6289 18.2227 19.7773C18.3711 19.9258 18.5469 20 18.75 20Z" fill="#333333"/>
</svg>
